<svg width="150" height="150" viewBox="0 0 150 150" fill="none" xmlns="http://www.w3.org/2000/svg">
<path d="M76.4081 116.932H27.5745C21.1806 116.932 16 111.67 16 105.176V52.7647C16 46.2704 21.1806 41.0084 27.5745 41.0084H79.1814C85.5753 41.0084 90.7559 46.2704 90.7559 52.7647V87.7664" class="stroke-primary" stroke="#017D8C" stroke-width="2.5" stroke-linejoin="round"/>
<path d="M25.3445 64.3696H80.2433" class="stroke-primary" stroke="#017D8C" stroke-width="2.5" stroke-linecap="round" stroke-linejoin="round"/>
<path d="M25.3445 76.0502H32.3528" class="stroke-primary" stroke="#017D8C" stroke-width="2.5" stroke-linecap="round" stroke-linejoin="round"/>
<path d="M40.5293 76.0502H48.7057" class="stroke-primary" stroke="#017D8C" stroke-width="2.5" stroke-linecap="round" stroke-linejoin="round"/>
<path d="M56.8821 76.0502H65.0586" class="stroke-primary" stroke="#017D8C" stroke-width="2.5" stroke-linecap="round" stroke-linejoin="round"/>
<path d="M72.0669 76.0502H80.2433" class="stroke-primary" stroke="#017D8C" stroke-width="2.5" stroke-linecap="round" stroke-linejoin="round"/>
<path d="M25.3445 85.3947H32.3528" class="stroke-primary" stroke="#017D8C" stroke-width="2.5" stroke-linecap="round" stroke-linejoin="round"/>
<path d="M40.5293 85.3947H48.7057" class="stroke-primary" stroke="#017D8C" stroke-width="2.5" stroke-linecap="round" stroke-linejoin="round"/>
<path d="M56.8821 85.3947H65.0586" class="stroke-primary" stroke="#017D8C" stroke-width="2.5" stroke-linecap="round" stroke-linejoin="round"/>
<path d="M72.0669 85.3947H80.2433" class="stroke-primary" stroke="#017D8C" stroke-width="2.5" stroke-linecap="round" stroke-linejoin="round"/>
<path d="M25.3445 94.7391H32.3528" class="stroke-primary" stroke="#017D8C" stroke-width="2.5" stroke-linecap="round" stroke-linejoin="round"/>
<path d="M40.5293 94.7391H48.7057" class="stroke-primary" stroke="#017D8C" stroke-width="2.5" stroke-linecap="round" stroke-linejoin="round"/>
<path d="M56.8821 94.7391H65.0586" class="stroke-primary" stroke="#017D8C" stroke-width="2.5" stroke-linecap="round" stroke-linejoin="round"/>
<path d="M72.0669 94.7391H80.2433" class="stroke-primary" stroke="#017D8C" stroke-width="2.5" stroke-linecap="round" stroke-linejoin="round"/>
<path d="M25.3445 102.916H32.3528" class="stroke-primary" stroke="#017D8C" stroke-width="2.5" stroke-linecap="round" stroke-linejoin="round"/>
<path d="M40.5293 102.916H48.7057" class="stroke-primary" stroke="#017D8C" stroke-width="2.5" stroke-linecap="round" stroke-linejoin="round"/>
<path d="M56.8821 102.916H65.0586" class="stroke-primary" stroke="#017D8C" stroke-width="2.5" stroke-linecap="round" stroke-linejoin="round"/>
<path d="M72.0669 102.916H75.5711" class="stroke-primary" stroke="#017D8C" stroke-width="2.5" stroke-linecap="round" stroke-linejoin="round"/>
<path d="M31.1848 34V48.0167" class="stroke-primary" stroke="#017D8C" stroke-width="2.5" stroke-linecap="round" stroke-linejoin="round"/>
<path d="M75.571 34V48.0167" class="stroke-primary" stroke="#017D8C" stroke-width="2.5" stroke-linecap="round" stroke-linejoin="round"/>
<path d="M65.0585 34V48.0167" class="stroke-primary" stroke="#017D8C" stroke-width="2.5" stroke-linecap="round" stroke-linejoin="round"/>
<path d="M53.3779 34V48.0167" class="stroke-primary" stroke="#017D8C" stroke-width="2.5" stroke-linecap="round" stroke-linejoin="round"/>
<path d="M41.6973 34V48.0167" class="stroke-primary" stroke="#017D8C" stroke-width="2.5" stroke-linecap="round" stroke-linejoin="round"/>
<path d="M96.0121 129.781C107.301 129.781 116.453 120.629 116.453 109.34C116.453 98.0506 107.301 88.8989 96.0121 88.8989C84.7228 88.8989 75.571 98.0506 75.571 109.34C75.571 120.629 84.7228 129.781 96.0121 129.781Z" class="stroke-secondary" stroke="#A4D472" stroke-width="2.5" stroke-miterlimit="10"/>
<path d="M98.9323 59.6973L109.632 49.5051L114.893 54.5667L132.806 37.5042" class="stroke-primary" stroke="#017D8C" stroke-width="2.5" stroke-linecap="round" stroke-linejoin="round"/>
<path d="M123.462 37.5042H132.806V45.6806" fill="#515457"/>
<path d="M123.462 37.5042H132.806V45.6806" class="stroke-primary" stroke="#017D8C" stroke-width="2.5" stroke-linecap="round" stroke-linejoin="round"/>
<path d="M104.887 74.9641H104.918V82.9709C104.909 82.9725 104.899 82.9768 104.887 82.9768C104.875 82.9768 104.864 82.9726 104.855 82.9709V74.969C104.864 74.9673 104.875 74.9641 104.887 74.9641ZM112.835 74.9641C112.847 74.9641 112.858 74.9673 112.867 74.969V82.9709C112.858 82.9726 112.847 82.9768 112.835 82.9768C112.823 82.9768 112.813 82.9725 112.804 82.9709V74.9641H112.835Z" fill="#017D8C" class="stroke-primary" stroke="#017D8C" stroke-width="2.5"/>
<path d="M117.735 63.2834H117.767V82.968C117.765 82.9691 117.763 82.9709 117.761 82.9719C117.755 82.9743 117.747 82.9768 117.735 82.9768C117.724 82.9768 117.716 82.9742 117.71 82.9719C117.707 82.9708 117.705 82.9683 117.703 82.967V63.2922C117.705 63.291 117.707 63.2894 117.71 63.2883C117.716 63.286 117.724 63.2834 117.735 63.2834ZM125.684 63.2834C125.695 63.2834 125.703 63.286 125.709 63.2883C125.712 63.2894 125.714 63.291 125.716 63.2922V82.967C125.714 82.9683 125.712 82.9708 125.709 82.9719C125.703 82.9743 125.695 82.9768 125.684 82.9768C125.672 82.9768 125.664 82.9743 125.658 82.9719C125.656 82.9709 125.654 82.9691 125.652 82.968V63.2834H125.684Z" fill="#017D8C" class="stroke-primary" stroke="#017D8C" stroke-width="2.5"/>
<path d="M129.416 53.939H137.364C137.373 53.939 137.379 53.9402 137.383 53.9419C137.388 53.944 137.393 53.9474 137.396 53.9507V82.9585L137.383 82.9663C137.379 82.968 137.373 82.9702 137.364 82.9702H137.342L137.333 82.9644V53.9507H129.447V82.9644C129.444 82.9676 129.44 82.971 129.435 82.9731C129.43 82.9749 129.425 82.977 129.416 82.9771C129.407 82.9771 129.401 82.9749 129.396 82.9731C129.392 82.971 129.387 82.9676 129.384 82.9644V53.9507C129.387 53.9474 129.391 53.944 129.396 53.9419C129.401 53.9401 129.407 53.939 129.416 53.939Z" fill="#017D8C" class="stroke-primary" stroke="#017D8C" stroke-width="2.5"/>
<path d="M84.9156 109.574L92.1574 116.932L107.109 101.747" class="stroke-secondary" stroke="#A4D472" stroke-width="2.5" stroke-linecap="round" stroke-linejoin="round"/>
</svg>
