<svg width="150" height="150" viewBox="0 0 150 150" fill="none" xmlns="http://www.w3.org/2000/svg">
<g clip-path="url(#clip0_783_14456)">
<path d="M118.105 80.0373H34.1603" class="stroke-primary" stroke="#017D8C" stroke-width="2.5" stroke-linecap="round" stroke-linejoin="round"/>
<path d="M32.2421 65.5425H120.897V109.868C120.897 115.782 116.095 120.584 110.181 120.584H42.9538C37.0399 120.584 32.2373 115.782 32.2373 109.868V65.5425H32.2421Z" class="stroke-primary" stroke="#017D8C" stroke-width="2.5" stroke-linecap="round" stroke-linejoin="round"/>
<path d="M60.3283 65.5425L46.9012 78.9695" class="stroke-primary" stroke="#017D8C" stroke-width="2.5" stroke-linecap="round" stroke-linejoin="round"/>
<path d="M78.6691 65.5425L65.2421 78.9695" class="stroke-primary" stroke="#017D8C" stroke-width="2.5" stroke-linecap="round" stroke-linejoin="round"/>
<path d="M97.0051 65.5425L83.578 78.9695" class="stroke-primary" stroke="#017D8C" stroke-width="2.5" stroke-linecap="round" stroke-linejoin="round"/>
<path d="M115.346 65.5425L101.919 78.9695" class="stroke-primary" stroke="#017D8C" stroke-width="2.5" stroke-linecap="round" stroke-linejoin="round"/>
<path d="M115.964 35.1994L32.2808 64.4721L31.0189 60.8646C29.0662 55.2824 32.0138 49.1634 37.596 47.2107L101.053 25.0133C106.635 23.0606 112.754 26.0082 114.707 31.5904L115.969 35.1978L115.964 35.1994Z" class="stroke-primary" stroke="#017D8C" stroke-width="2.5" stroke-linecap="round" stroke-linejoin="round"/>
<path d="M41.688 46.9601L58.7919 55.198" class="stroke-primary" stroke="#017D8C" stroke-width="2.5" stroke-linecap="round" stroke-linejoin="round"/>
<path d="M58.9996 40.9013L76.1035 49.144" class="stroke-primary" stroke="#017D8C" stroke-width="2.5" stroke-linecap="round" stroke-linejoin="round"/>
<path d="M76.3064 34.8473L93.4151 43.09" class="stroke-primary" stroke="#017D8C" stroke-width="2.5" stroke-linecap="round" stroke-linejoin="round"/>
<path d="M93.6182 28.7932L110.727 37.036" class="stroke-primary" stroke="#017D8C" stroke-width="2.5" stroke-linecap="round" stroke-linejoin="round"/>
</g>
<defs>
<clipPath id="clip0_783_14456">
<rect width="95.3132" height="101" fill="white" transform="translate(28 22)"/>
</clipPath>
</defs>
</svg>
