<svg width="150" height="150" viewBox="0 0 150 150" fill="none" xmlns="http://www.w3.org/2000/svg">
<path d="M126.601 55.5496H21.1044V68.4089H126.601V55.5496Z" class="stroke-primary" stroke="#017D8C" stroke-width="2.5" stroke-linecap="round" stroke-linejoin="round"/>
<path d="M106.161 111.812H113.083L118.184 68.4089H28.0925L33.1934 111.812H40.7427" class="stroke-primary" stroke="#017D8C" stroke-width="2.5" stroke-linecap="round" stroke-linejoin="round"/>
<path d="M109.63 76.1265H98.6019" class="stroke-primary" stroke="#017D8C" stroke-width="2.5" stroke-linecap="round" stroke-linejoin="round"/>
<path d="M28.0925 102.661H17.0645" class="stroke-primary" stroke="#017D8C" stroke-width="2.5" stroke-linecap="round" stroke-linejoin="round"/>
<path d="M135.216 126.957H124.188" class="stroke-primary" stroke="#017D8C" stroke-width="2.5" stroke-linecap="round" stroke-linejoin="round"/>
<path d="M88.9561 76.1265H77.9332" class="stroke-primary" stroke="#017D8C" stroke-width="2.5" stroke-linecap="round" stroke-linejoin="round"/>
<path d="M68.5323 76.1265H57.5093" class="stroke-primary" stroke="#017D8C" stroke-width="2.5" stroke-linecap="round" stroke-linejoin="round"/>
<path d="M82.728 111.812H63.8802" class="stroke-primary" stroke="#017D8C" stroke-width="2.5" stroke-linecap="round" stroke-linejoin="round"/>
<path d="M49.5417 76.1265H38.5136" class="stroke-primary" stroke="#017D8C" stroke-width="2.5" stroke-linecap="round" stroke-linejoin="round"/>
<path d="M114.154 126.957H32.9996" class="stroke-primary" stroke="#017D8C" stroke-width="2.5" stroke-linecap="round" stroke-linejoin="round"/>
<path d="M94.5926 114.919C96.3082 114.919 97.699 113.528 97.699 111.812C97.699 110.096 96.3082 108.706 94.5926 108.706C92.8769 108.706 91.4861 110.096 91.4861 111.812C91.4861 113.528 92.8769 114.919 94.5926 114.919Z" class="stroke-primary" stroke="#017D8C" stroke-width="2.5" stroke-linecap="round" stroke-linejoin="round"/>
<path d="M52.3115 114.919C54.0271 114.919 55.4179 113.528 55.4179 111.812C55.4179 110.096 54.0271 108.706 52.3115 108.706C50.5959 108.706 49.2051 110.096 49.2051 111.812C49.2051 113.528 50.5959 114.919 52.3115 114.919Z" class="stroke-primary" stroke="#017D8C" stroke-width="2.5" stroke-linecap="round" stroke-linejoin="round"/>
<path d="M94.5926 123.381C100.982 123.381 106.161 118.201 106.161 111.812C106.161 105.423 100.982 100.243 94.5926 100.243C88.2033 100.243 83.0238 105.423 83.0238 111.812C83.0238 118.201 88.2033 123.381 94.5926 123.381Z" class="stroke-primary" stroke="#017D8C" stroke-width="2.5" stroke-linecap="round" stroke-linejoin="round"/>
<path d="M52.3114 123.381C58.7007 123.381 63.8802 118.201 63.8802 111.812C63.8802 105.423 58.7007 100.243 52.3114 100.243C45.9222 100.243 40.7427 105.423 40.7427 111.812C40.7427 118.201 45.9222 123.381 52.3114 123.381Z" class="stroke-primary" stroke="#017D8C" stroke-width="2.5" stroke-linecap="round" stroke-linejoin="round"/>
<path d="M65.3901 54.4631L66.1909 47.1434H69.2208L71.353 43.2463L76.3518 39.8236L83.0238 44.0573L89.762 43.9196V50.3212L85.9874 54.4631" class="stroke-primary" stroke="#017D8C" stroke-width="2.5" stroke-linecap="round" stroke-linejoin="round"/>
<path d="M30.2808 53.2695L34.6676 47.1434L39.9623 51.4281L46.8331 48.7909L50.9138 39.8236L58.56 40.8693L59.7944 46.5466L65.3901 51.0302" class="stroke-primary" stroke="#017D8C" stroke-width="2.5" stroke-linecap="round" stroke-linejoin="round"/>
<path d="M37.167 46.5465V39.8236L44.0277 33.3353L49.5417 39.8236" class="stroke-primary" stroke="#017D8C" stroke-width="2.5" stroke-linecap="round" stroke-linejoin="round"/>
<path d="M113.451 55.5496V49.2959L106.161 40.8489L100.525 45.8273L96.633 43.6288L89.7621 45.9599" class="stroke-primary" stroke="#017D8C" stroke-width="2.5" stroke-linecap="round" stroke-linejoin="round"/>
<path d="M102.876 42.0884L98.6019 36.2989L92.6032 33.3353L83.0238 44.0573" class="stroke-primary" stroke="#017D8C" stroke-width="2.5" stroke-linecap="round" stroke-linejoin="round"/>
<path d="M90.4099 35.7888L84.8091 29.5504L79.0247 32.6721L73.8525 30.9225L69.9707 35.7888V40.8488" class="stroke-primary" stroke="#017D8C" stroke-width="2.5" stroke-linecap="round" stroke-linejoin="round"/>
<path d="M69.9707 35.7888L59.6721 35.1971L54.5304 32.2743L50.3018 36.9416" class="stroke-primary" stroke="#017D8C" stroke-width="2.5" stroke-linecap="round" stroke-linejoin="round"/>
</svg>
