<svg width="150" height="150" viewBox="0 0 150 150" fill="none" xmlns="http://www.w3.org/2000/svg">
<path d="M63.1588 28.319H124.244" class="stroke-primary" stroke="#017D8C" stroke-width="2.5" stroke-linecap="round" stroke-linejoin="round"/>
<path d="M63.1588 38.851H124.244" class="stroke-primary" stroke="#017D8C" stroke-width="2.5" stroke-linecap="round" stroke-linejoin="round"/>
<path d="M52.5469 35.3253V41.4748C52.5469 44.042 50.4692 46.1197 47.902 46.1197H33.6449C31.0777 46.1197 29 44.042 29 41.4748V27.2177C29 24.6504 31.0777 22.5728 33.6449 22.5728H45.0363" class="stroke-primary" stroke="#017D8C" stroke-width="2.5" stroke-linecap="round" stroke-linejoin="round"/>
<path d="M35.496 29.3314L42.3858 36.2212L56.5951 21.9999" class="stroke-secondary" stroke="#A4D472" stroke-width="2.5" stroke-linecap="round" stroke-linejoin="round"/>
<path d="M63.1588 66.234H124.244" class="stroke-primary" stroke="#017D8C" stroke-width="2.5" stroke-linecap="round" stroke-linejoin="round"/>
<path d="M63.1588 76.7659H124.244" class="stroke-primary" stroke="#017D8C" stroke-width="2.5" stroke-linecap="round" stroke-linejoin="round"/>
<path d="M52.5469 72.7654V78.9148C52.5469 81.4821 50.4692 83.5597 47.902 83.5597H33.6449C31.0777 83.5597 29 81.4821 29 78.9148V64.6577C29 62.0905 31.0777 60.0128 33.6449 60.0128H45.0363" class="stroke-primary" stroke="#017D8C" stroke-width="2.5" stroke-linecap="round" stroke-linejoin="round"/>
<path d="M35.496 66.7715L42.3858 73.6612L56.5951 59.4399" class="stroke-secondary" stroke="#A4D472" stroke-width="2.5" stroke-linecap="round" stroke-linejoin="round"/>
<path d="M63.1588 104.149H124.244" class="stroke-primary" stroke="#017D8C" stroke-width="2.5" stroke-linecap="round" stroke-linejoin="round"/>
<path d="M63.1588 114.681H124.244" class="stroke-primary" stroke="#017D8C" stroke-width="2.5" stroke-linecap="round" stroke-linejoin="round"/>
<path d="M52.5469 110.206V116.355C52.5469 118.922 50.4692 121 47.902 121H33.6449C31.0777 121 29 118.922 29 116.355V102.098C29 99.5306 31.0777 97.4529 33.6449 97.4529H45.0363" class="stroke-primary" stroke="#017D8C" stroke-width="2.5" stroke-linecap="round" stroke-linejoin="round"/>
<path d="M35.496 104.211L42.3858 111.101L56.5951 96.8798" class="stroke-secondary" stroke="#A4D472" stroke-width="2.5" stroke-linecap="round" stroke-linejoin="round"/>
</svg>
