<svg width="150" height="150" viewBox="0 0 150 150" fill="none" xmlns="http://www.w3.org/2000/svg">
<path d="M108.928 102.77V107.308C108.928 114.869 102.776 121 95.188 121H35V17.9999H87.1309L108.928 37.9451V46.5423" stroke="#017D8C" stroke-width="2.5" stroke-linecap="round" stroke-linejoin="round"/>
<path d="M43.3063 57.8708H71.5482" stroke="#017D8C" stroke-width="2.5" stroke-linecap="round" stroke-linejoin="round"/>
<path d="M43.3063 65.3467H65.7337" stroke="#017D8C" stroke-width="2.5" stroke-linecap="round" stroke-linejoin="round"/>
<path d="M43.3063 80.2983H63.2418" stroke="#017D8C" stroke-width="2.5" stroke-linecap="round" stroke-linejoin="round"/>
<path d="M43.3063 90.2661H71.5482" stroke="#017D8C" stroke-width="2.5" stroke-linecap="round" stroke-linejoin="round"/>
<path d="M43.3063 103.556H95.637" stroke="#017D8C" stroke-width="2.5" stroke-linecap="round" stroke-linejoin="round"/>
<path d="M43.3063 111.032H95.637" stroke="#017D8C" stroke-width="2.5" stroke-linecap="round" stroke-linejoin="round"/>
<path d="M108.928 102.77V107.308C108.928 114.869 102.776 121 95.188 121H35V17.9999H87.1309L108.928 37.9451V46.5423" stroke="#017D8C" stroke-width="2.5" stroke-linecap="round" stroke-linejoin="round"/>
<path d="M103.113 96.9113C115.041 96.9113 124.71 87.2421 124.71 75.3145C124.71 63.3869 115.041 53.7177 103.113 53.7177C91.1858 53.7177 81.5166 63.3869 81.5166 75.3145C81.5166 87.2421 91.1858 96.9113 103.113 96.9113Z" stroke="#A4D472" stroke-width="2.5" stroke-miterlimit="10"/>
<path d="M92.3146 75.5474L99.3624 82.7903L113.911 67.8387" stroke="#A4D472" stroke-width="2.5" stroke-linecap="round" stroke-linejoin="round"/>
<path d="M42 43.2591L43.6101 41.3521C43.9946 41.7848 44.4491 42.1402 44.9518 42.401C45.5012 42.7174 46.1164 42.8814 46.7408 42.8778C46.995 42.8773 47.2479 42.8387 47.4921 42.7633C47.7276 42.6944 47.9431 42.5633 48.1183 42.3819C48.2002 42.2836 48.2629 42.1688 48.3028 42.0444C48.3427 41.92 48.3591 41.7885 48.3509 41.6573C48.3502 41.4616 48.3 41.2697 48.2055 41.1018C48.1111 40.934 47.9758 40.7965 47.8141 40.7038C47.1983 40.3794 46.5502 40.1299 45.8821 39.96C43.628 39.2735 42.5189 38.0529 42.5189 36.2793C42.5012 35.8371 42.5718 35.3962 42.726 34.9852C42.8802 34.5743 43.1145 34.2028 43.4133 33.8955C44.0777 33.2287 44.9364 32.8249 45.8463 32.7514V31.0541H47.6352V32.7514C48.2974 32.8098 48.9391 33.0247 49.5136 33.3806C49.9143 33.6418 50.2916 33.942 50.6407 34.2771L49.1022 36.1841C48.8204 35.9232 48.5148 35.6932 48.1898 35.4976C47.5243 35.124 46.75 35.0353 46.0251 35.2497C45.7788 35.3179 45.5517 35.4487 45.3632 35.631C45.2755 35.7146 45.206 35.8176 45.1596 35.9329C45.1132 36.0482 45.0912 36.173 45.095 36.2984C45.0872 36.4909 45.1342 36.6814 45.23 36.8448C45.3258 37.0082 45.4659 37.1368 45.6316 37.2137C46.1623 37.4686 46.713 37.6729 47.2774 37.8241C47.8983 37.9634 48.4996 38.1877 49.0664 38.4915C49.6131 38.7704 50.091 39.1819 50.4618 39.693C50.8262 40.2518 51.0141 40.9197 50.9985 41.6C51.0173 42.2074 50.8613 42.8064 50.5512 43.3164C50.2529 43.818 49.8407 44.2313 49.3527 44.5178C48.8314 44.8319 48.2621 45.0449 47.6711 45.147V47.0541H45.8821V45.2804C45.0873 45.2143 44.3138 44.9741 43.6101 44.5748C43.0083 44.2351 42.464 43.7905 42 43.2591V43.2591Z" fill="#017D8C"/>
<path d="M54 43.2591L55.6101 41.3521C55.9946 41.7848 56.4491 42.1402 56.9518 42.401C57.5012 42.7174 58.1164 42.8814 58.7408 42.8778C58.995 42.8773 59.2479 42.8387 59.4921 42.7633C59.7276 42.6944 59.9431 42.5633 60.1183 42.3819C60.2002 42.2836 60.2629 42.1688 60.3028 42.0444C60.3427 41.92 60.3591 41.7885 60.3509 41.6573C60.3502 41.4616 60.3 41.2697 60.2055 41.1018C60.1111 40.934 59.9758 40.7965 59.8141 40.7038C59.1983 40.3794 58.5502 40.1299 57.8821 39.96C55.628 39.2735 54.5189 38.0529 54.5189 36.2793C54.5012 35.8371 54.5718 35.3962 54.726 34.9852C54.8802 34.5743 55.1145 34.2028 55.4133 33.8955C56.0777 33.2287 56.9364 32.8249 57.8463 32.7514V31.0541H59.6352V32.7514C60.2974 32.8098 60.9391 33.0247 61.5136 33.3806C61.9143 33.6418 62.2916 33.942 62.6407 34.2771L61.1022 36.1841C60.8204 35.9232 60.5148 35.6932 60.1898 35.4976C59.5243 35.124 58.75 35.0353 58.0251 35.2497C57.7788 35.3179 57.5517 35.4487 57.3632 35.631C57.2755 35.7146 57.206 35.8176 57.1596 35.9329C57.1132 36.0482 57.0912 36.173 57.095 36.2984C57.0872 36.4909 57.1342 36.6814 57.23 36.8448C57.3258 37.0082 57.4659 37.1368 57.6316 37.2137C58.1623 37.4686 58.713 37.6729 59.2774 37.8241C59.8983 37.9634 60.4996 38.1877 61.0664 38.4915C61.6131 38.7704 62.091 39.1819 62.4618 39.693C62.8262 40.2518 63.0141 40.9197 62.9985 41.6C63.0173 42.2074 62.8613 42.8064 62.5512 43.3164C62.2529 43.818 61.8407 44.2313 61.3527 44.5178C60.8314 44.8319 60.2621 45.0449 59.6711 45.147V47.0541H57.8821V45.2804C57.0873 45.2143 56.3138 44.9741 55.6101 44.5748C55.0083 44.2351 54.464 43.7905 54 43.2591V43.2591Z" fill="#017D8C"/>
<path d="M66 43.2591L67.6101 41.3521C67.9946 41.7848 68.4491 42.1402 68.9518 42.401C69.5012 42.7174 70.1164 42.8814 70.7408 42.8778C70.995 42.8773 71.2479 42.8387 71.4921 42.7633C71.7276 42.6944 71.9431 42.5633 72.1183 42.3819C72.2002 42.2836 72.2629 42.1688 72.3028 42.0444C72.3427 41.92 72.3591 41.7885 72.3509 41.6573C72.3502 41.4616 72.3 41.2697 72.2055 41.1018C72.1111 40.934 71.9758 40.7965 71.8141 40.7038C71.1983 40.3794 70.5502 40.1299 69.8821 39.96C67.628 39.2735 66.5189 38.0529 66.5189 36.2793C66.5012 35.8371 66.5718 35.3962 66.726 34.9852C66.8802 34.5743 67.1145 34.2028 67.4133 33.8955C68.0777 33.2287 68.9364 32.8249 69.8463 32.7514V31.0541H71.6352V32.7514C72.2974 32.8098 72.9391 33.0247 73.5136 33.3806C73.9143 33.6418 74.2916 33.942 74.6407 34.2771L73.1022 36.1841C72.8204 35.9232 72.5148 35.6932 72.1898 35.4976C71.5243 35.124 70.75 35.0353 70.0251 35.2497C69.7788 35.3179 69.5517 35.4487 69.3632 35.631C69.2755 35.7146 69.206 35.8176 69.1596 35.9329C69.1132 36.0482 69.0912 36.173 69.095 36.2984C69.0872 36.4909 69.1342 36.6814 69.23 36.8448C69.3258 37.0082 69.4659 37.1368 69.6316 37.2137C70.1623 37.4686 70.713 37.6729 71.2774 37.8241C71.8983 37.9634 72.4996 38.1877 73.0664 38.4915C73.6131 38.7704 74.091 39.1819 74.4618 39.693C74.8262 40.2518 75.0141 40.9197 74.9985 41.6C75.0173 42.2074 74.8613 42.8064 74.5512 43.3164C74.2529 43.818 73.8407 44.2313 73.3527 44.5178C72.8314 44.8319 72.2621 45.0449 71.6711 45.147V47.0541H69.8821V45.2804C69.0873 45.2143 68.3138 44.9741 67.6101 44.5748C67.0083 44.2351 66.464 43.7905 66 43.2591V43.2591Z" fill="#017D8C"/>
</svg>
