<svg width="150" height="150" viewBox="0 0 150 150" fill="none" xmlns="http://www.w3.org/2000/svg">
<path d="M109.799 106.344V110.955C109.799 118.637 103.57 124.865 95.8883 124.865H34.9512V20.2224H87.7309L109.799 40.4858V49.2201" stroke="#017D8C" stroke-width="2.5" stroke-linecap="round" stroke-linejoin="round"/>
<path d="M61.16 38.2228H96.092" stroke="#017D8C" stroke-width="2.5" stroke-linecap="round" stroke-linejoin="round"/>
<path d="M61.16 46.041H96.092" stroke="#017D8C" stroke-width="2.5" stroke-linecap="round" stroke-linejoin="round"/>
<path d="M61.16 61.6767H80.0657" stroke="#017D8C" stroke-width="2.5" stroke-linecap="round" stroke-linejoin="round"/>
<path d="M61.16 69.4949H76.0323" stroke="#017D8C" stroke-width="2.5" stroke-linecap="round" stroke-linejoin="round"/>
<path d="M104.159 100.473C116.222 100.473 126.001 90.6938 126.001 78.6309C126.001 66.5681 116.222 56.7893 104.159 56.7893C92.0962 56.7893 82.3174 66.5681 82.3174 78.6309C82.3174 90.6938 92.0962 100.473 104.159 100.473Z" stroke="#017D8C" stroke-width="2.5" stroke-miterlimit="10"/>
<path d="M92.5685 78.8742L100.132 86.4376L115.745 70.8243" stroke="#017D8C" stroke-width="2.5" stroke-linecap="round" stroke-linejoin="round"/>
<path d="M54.4401 42.6579V45.5712C54.4401 46.7875 53.4557 47.7718 52.2395 47.7718H45.485C44.2688 47.7718 43.2845 46.7875 43.2845 45.5712V38.8168C43.2845 37.6005 44.2688 36.6162 45.485 36.6162H50.8818" stroke="#017D8C" stroke-width="2.5" stroke-linecap="round" stroke-linejoin="round"/>
<path d="M46.3606 39.8181L49.6247 43.0822L56.3565 36.3447" stroke="#017D8C" stroke-width="2.5" stroke-linecap="round" stroke-linejoin="round"/>
<path d="M54.4401 65.7102V68.6235C54.4401 69.8398 53.4557 70.8241 52.2395 70.8241H45.485C44.2688 70.8241 43.2845 69.8398 43.2845 68.6235V61.8691C43.2845 60.6528 44.2688 59.6685 45.485 59.6685H50.8818" stroke="#017D8C" stroke-width="2.5" stroke-linecap="round" stroke-linejoin="round"/>
<path d="M46.3606 62.876L49.6247 66.1401L56.3565 59.4026" stroke="#017D8C" stroke-width="2.5" stroke-linecap="round" stroke-linejoin="round"/>
<path d="M61.16 85.1364H75.5401" stroke="#017D8C" stroke-width="2.5" stroke-linecap="round" stroke-linejoin="round"/>
<path d="M61.16 92.9542H80.0657" stroke="#017D8C" stroke-width="2.5" stroke-linecap="round" stroke-linejoin="round"/>
<path d="M54.4401 89.1698V92.0831C54.4401 93.2994 53.4557 94.2837 52.2395 94.2837H45.485C44.2688 94.2837 43.2845 93.2994 43.2845 92.0831V85.3287C43.2845 84.1124 44.2688 83.1281 45.485 83.1281H50.8818" stroke="#017D8C" stroke-width="2.5" stroke-linecap="round" stroke-linejoin="round"/>
<path d="M46.3606 86.33L49.6247 89.5941L56.3565 82.8622" stroke="#017D8C" stroke-width="2.5" stroke-linecap="round" stroke-linejoin="round"/>
<path d="M61.16 107.459H96.092" stroke="#017D8C" stroke-width="2.5" stroke-linecap="round" stroke-linejoin="round"/>
<path d="M61.16 115.277H96.092" stroke="#017D8C" stroke-width="2.5" stroke-linecap="round" stroke-linejoin="round"/>
<path d="M54.4401 111.492V114.406C54.4401 115.622 53.4557 116.606 52.2395 116.606H45.485C44.2688 116.606 43.2845 115.622 43.2845 114.406V107.651C43.2845 106.435 44.2688 105.451 45.485 105.451H50.8818" stroke="#017D8C" stroke-width="2.5" stroke-linecap="round" stroke-linejoin="round"/>
<path d="M46.3606 108.652L49.6247 111.916L56.3565 105.185" stroke="#017D8C" stroke-width="2.5" stroke-linecap="round" stroke-linejoin="round"/>
</svg>
