<svg width="156" height="150" viewBox="0 0 156 150" fill="none" xmlns="http://www.w3.org/2000/svg">
<path d="M89.8694 85.9005C89.8694 85.9005 102.269 92.7803 89.8694 98.952C77.2753 105.218 65.126 97.2665 61.0032 118.739" stroke="#017D8C" stroke-width="2.5" stroke-linecap="round" stroke-linejoin="round"/>
<path d="M95.0511 85.9005C95.0511 85.9005 120.659 89.4406 103.717 97.7615C86.7741 106.089 120.377 118.739 120.377 118.739" stroke="#017D8C" stroke-width="2.5" stroke-linecap="round" stroke-linejoin="round"/>
<path d="M68.9857 67.5544C68.6787 66.2198 68.5157 64.8351 68.5157 63.4128C68.5157 53.2247 76.774 44.9665 86.962 44.9665C97.1501 44.9665 105.408 53.2247 105.408 63.4128C105.408 65.775 104.963 68.0306 104.155 70.1046" stroke="#017D8C" stroke-width="2.5" stroke-linecap="round" stroke-linejoin="round"/>
<path d="M86.9683 30.9375V38.024" stroke="#017D8C" stroke-width="2.5" stroke-linecap="round" stroke-linejoin="round"/>
<path d="M64.0044 40.4489L69.017 45.4615" stroke="#017D8C" stroke-width="2.5" stroke-linecap="round" stroke-linejoin="round"/>
<path d="M109.926 40.4489L104.92 45.4615" stroke="#017D8C" stroke-width="2.5" stroke-linecap="round" stroke-linejoin="round"/>
<path d="M152.489 85.9005H24.499" stroke="#017D8C" stroke-width="2.5" stroke-linecap="round" stroke-linejoin="round"/>
<path d="M133.222 65.6935L120.352 52.8237L103.378 69.7976" stroke="#017D8C" stroke-width="2.5" stroke-linecap="round" stroke-linejoin="round"/>
<path d="M106.242 74.2901L98.2341 66.2825L90.9658 73.5507" stroke="#017D8C" stroke-width="2.5" stroke-linecap="round" stroke-linejoin="round"/>
<path d="M98.0524 85.1423L74.863 61.9529L66.5107 70.3051" stroke="#017D8C" stroke-width="2.5" stroke-linecap="round" stroke-linejoin="round"/>
<path d="M40.1257 59.4654L50.5143 45.1795L69.8817 64.5469" stroke="#017D8C" stroke-width="2.5" stroke-linecap="round" stroke-linejoin="round"/>
</svg>
