<svg width="150" height="150" viewBox="0 0 150 150" fill="none" xmlns="http://www.w3.org/2000/svg">
<path d="M75.1821 53.9459C83.1585 53.9459 89.6247 47.4798 89.6247 39.5034C89.6247 31.527 83.1585 25.0609 75.1821 25.0609C67.2057 25.0609 60.7396 31.527 60.7396 39.5034C60.7396 47.4798 67.2057 53.9459 75.1821 53.9459Z" stroke="#017D8C" stroke-width="2.5" stroke-linecap="round" stroke-linejoin="round"/>
<path d="M97.6692 76.1653C93.1809 63.9002 79.6271 57.5455 67.3621 62.0338C60.7852 64.4335 55.6303 69.5884 53.2306 76.1653" stroke="#017D8C" stroke-width="2.5" stroke-linecap="round" stroke-linejoin="round"/>
<path d="M38.3441 125.092L29.4119 113.894C26.5679 110.339 25.0125 105.939 25.0125 101.406V78.4317C25.0125 74.7433 27.9899 71.7659 31.6783 71.7659C35.3667 71.7659 38.3441 74.7433 38.3441 78.4317V95.0961" stroke="#017D8C" stroke-width="2.5" stroke-linecap="round" stroke-linejoin="round"/>
<path d="M58.3403 124.47V111.138C58.3403 107.183 57.1849 103.317 54.963 100.029L49.897 92.4297C48.1194 89.4967 44.2977 88.5191 41.3648 90.2966C41.2759 90.3411 41.187 90.3855 41.0981 90.4744C38.4763 92.2075 37.5875 95.6293 39.0095 98.4289L45.0087 108.428" stroke="#017D8C" stroke-width="2.5" stroke-linecap="round" stroke-linejoin="round"/>
<path d="M111.668 125.092L120.6 113.894C123.444 110.339 124.999 105.939 124.999 101.406V78.4317C124.999 74.7433 122.022 71.7659 118.333 71.7659C114.645 71.7659 111.668 74.7433 111.668 78.4317V95.0961" stroke="#017D8C" stroke-width="2.5" stroke-linecap="round" stroke-linejoin="round"/>
<path d="M91.6692 124.47V111.138C91.6692 107.183 92.8246 103.317 95.0465 100.029L100.113 92.4297C101.89 89.4967 105.712 88.5191 108.645 90.2966C108.734 90.3411 108.822 90.3855 108.911 90.4744C111.533 92.2075 112.422 95.6293 111.044 98.4289L105.045 108.428" stroke="#017D8C" stroke-width="2.5" stroke-linecap="round" stroke-linejoin="round"/>
</svg>
