<svg width="150" height="150" viewBox="0 0 150 150" fill="none" xmlns="http://www.w3.org/2000/svg">
<path d="M29.7209 33.533C29.7209 41.8915 36.4968 48.6673 44.8552 48.6673C53.2137 48.6673 59.9895 41.8915 59.9895 33.533C59.9895 25.1745 53.2137 18.3987 44.8552 18.3987C36.4968 18.3987 29.7209 25.1745 29.7209 33.533Z" stroke="#017D8C" stroke-width="2.5" stroke-linecap="round" stroke-linejoin="round"/>
<path d="M71.3642 82.7937C71.3642 68.154 59.4942 56.2839 44.8545 56.2839C30.2148 56.2839 18.3448 68.154 18.3448 82.7937V94.1691H29.7202L33.5285 132.054H56.2794L60.0877 94.1691H71.4631V82.7937H71.3642Z" stroke="#017D8C" stroke-width="2.5" stroke-linecap="round" stroke-linejoin="round"/>
<path d="M86.103 31.6536C86.103 38.9734 92.038 44.9085 99.3579 44.9085C106.678 44.9085 112.613 38.9734 112.613 31.6536C112.613 24.3338 106.678 18.3987 99.3579 18.3987C92.038 18.3987 86.103 24.3338 86.103 31.6536Z" stroke="#017D8C" stroke-width="2.5" stroke-linecap="round" stroke-linejoin="round"/>
<path d="M76.6544 71.4182C76.6544 58.8558 86.8428 48.6674 99.4052 48.6674C111.968 48.6674 122.156 58.8558 122.156 71.4182H76.6544Z" stroke="#017D8C" stroke-width="2.5" stroke-linecap="round" stroke-linejoin="round"/>
<path d="M68.7935 71.4182H132.001V120.333" stroke="#017D8C" stroke-width="2.5" stroke-linecap="round" stroke-linejoin="round"/>
</svg>
