<svg width="160" height="150" viewBox="0 0 160 150" fill="none" xmlns="http://www.w3.org/2000/svg">
<path d="M87.306 96.4023L95.5679 104.664C97.8756 106.972 101.623 106.972 103.931 104.664C106.238 102.357 106.238 98.6091 103.931 96.3014L95.6688 88.0395" stroke="#017D8C" stroke-width="2.5" stroke-linecap="round" stroke-linejoin="round"/>
<path d="M82.9933 108.815L87.1983 113.02C89.506 115.328 93.2535 115.328 95.5612 113.02C97.8689 110.713 97.8689 106.965 95.5612 104.657L87.2992 96.3956" stroke="#017D8C" stroke-width="2.5" stroke-linecap="round" stroke-linejoin="round"/>
<path d="M74.9938 117.548L78.8355 121.39C81.1432 123.698 84.8907 123.698 87.1983 121.39C89.506 119.082 89.506 115.335 87.1983 113.027L83.3567 109.185" stroke="#017D8C" stroke-width="2.5" stroke-linecap="round" stroke-linejoin="round"/>
<path d="M55.6001 86.749C57.9096 84.4395 57.9096 80.695 55.6001 78.3855C53.2906 76.076 49.5462 76.076 47.2367 78.3855L38.9731 86.6491C36.6636 88.9586 36.6636 92.7031 38.9731 95.0126C41.2826 97.3221 45.0271 97.3221 47.3366 95.0126L55.6001 86.749Z" stroke="#017D8C" stroke-width="2.5" stroke-linecap="round" stroke-linejoin="round"/>
<path d="M63.9649 95.1157C66.2745 92.8062 66.2745 89.0617 63.9649 86.7522C61.6554 84.4427 57.911 84.4427 55.6015 86.7522L47.3379 95.0158C45.0284 97.3253 45.0284 101.07 47.3379 103.379C49.6474 105.689 53.3919 105.689 55.7014 103.379L63.9649 95.1157Z" stroke="#017D8C" stroke-width="2.5" stroke-linecap="round" stroke-linejoin="round"/>
<path d="M72.3326 103.482C74.6421 101.173 74.6421 97.4285 72.3326 95.119C70.023 92.8095 66.2786 92.8095 63.9691 95.119L55.7055 103.383C53.396 105.692 53.396 109.437 55.7055 111.746C58.015 114.056 61.7595 114.056 64.069 111.746L72.3326 103.482Z" stroke="#017D8C" stroke-width="2.5" stroke-linecap="round" stroke-linejoin="round"/>
<path d="M80.7021 111.844C83.0116 109.535 83.0116 105.79 80.7021 103.481C78.3926 101.171 74.6482 101.171 72.3387 103.481L64.0751 111.745C61.7656 114.054 61.7656 117.798 64.0751 120.108C66.3846 122.417 70.129 122.417 72.4386 120.108L80.7021 111.844Z" stroke="#017D8C" stroke-width="2.5" stroke-linecap="round" stroke-linejoin="round"/>
<path d="M74.9996 53.0539C71.7164 47.7792 70.0084 48.0283 64.4108 46.6626L42.0403 41.4619L33.6842 77.3824L34.1148 77.4833C36.6378 78.0687 38.8244 79.6363 40.1901 81.843L41.3944 83.7941" stroke="#017D8C" stroke-width="2.5" stroke-linecap="round" stroke-linejoin="round"/>
<path d="M108.412 83.7807L109.616 81.8295C110.982 79.6295 113.168 78.0619 115.691 77.4698L116.122 77.3689L107.766 41.4484L85.3952 46.6491C81.6612 47.5573 78.156 49.4075 75.263 52.1054L63.9936 63.3815C60.5893 66.7858 60.5893 72.3028 63.9936 75.7071C67.398 79.1115 72.9149 79.1115 76.3192 75.7071L85.5904 66.436C87.0301 64.9962 89.3715 64.9962 90.8113 66.436L112.294 87.9183C114.601 90.226 114.601 93.9735 112.294 96.2812C109.986 98.5889 106.238 98.5889 103.931 96.2812L95.6688 88.0193" stroke="#017D8C" stroke-width="2.5" stroke-linecap="round" stroke-linejoin="round"/>
<path d="M117.147 81.7475L135.594 77.4581L125.205 32.7789L106.758 37.0682L117.147 81.7475Z" stroke="#017D8C" stroke-width="2.5" stroke-linecap="round" stroke-linejoin="round"/>
<path d="M43.0004 42.054L68.2659 47.9678" stroke="#017D8C" stroke-width="2.5" stroke-linecap="round" stroke-linejoin="round"/>
<path d="M43.0713 37.0696L24.6243 32.7802L14.2353 77.4595L32.6824 81.7488L43.0713 37.0696Z" stroke="#017D8C" stroke-width="2.5" stroke-linecap="round" stroke-linejoin="round"/>
</svg>
