<svg width="150" height="150" viewBox="0 0 150 150" fill="none" xmlns="http://www.w3.org/2000/svg">
<path d="M26.5292 103.474V42.8243C26.5292 40.7122 28.2414 39 30.3535 39H119.495C121.607 39 123.319 40.7122 123.319 42.8243V103.474" class="stroke-primary"  stroke="#017D8C" stroke-width="2.5" stroke-linejoin="round"/>
<path d="M85.5297 101.995V102.431C85.5297 104 84.2579 105.272 82.6895 105.272H67.1586C65.5902 105.272 64.3184 104 64.3184 102.431V101.995H16V104.395C16 108.26 19.1323 111.388 22.9925 111.388H126.856C130.72 111.388 133.848 108.256 133.848 104.395V101.995H85.5252H85.5297Z" class="stroke-primary"  stroke="#017D8C" stroke-width="2.5" stroke-linecap="round" stroke-linejoin="round"/>
<path d="M39.7548 53.8074H108.822" class="stroke-secondary" stroke="#86C543" stroke-width="2.5" stroke-linecap="round" stroke-linejoin="round"/>
<path d="M39.7548 78.5014H108.822" class="stroke-secondary" stroke="#86C543" stroke-width="2.5" stroke-linecap="round" stroke-linejoin="round"/>
<path d="M39.7548 66.1387H78.9731" class="stroke-secondary" stroke="#86C543" stroke-width="2.5" stroke-linecap="round" stroke-linejoin="round"/>
<path d="M93.2232 66.1387H108.822" class="stroke-secondary" stroke="#86C543" stroke-width="2.5" stroke-linecap="round" stroke-linejoin="round"/>
<path d="M39.7548 90.8057H75.8498" class="stroke-secondary" stroke="#86C543" stroke-width="2.5" stroke-linecap="round" stroke-linejoin="round"/>
</svg>
