<svg width="150" height="150" viewBox="0 0 150 150" fill="none" xmlns="http://www.w3.org/2000/svg">
<path d="M53.8454 10.0547H97.5119V79.921H53.8454V10.0547Z" stroke="#017D8C" stroke-width="2.5" stroke-linecap="round" stroke-linejoin="round"/>
<path d="M97.5119 10.0547L128.719 41.2616C129.571 42.1148 129.57 43.4972 128.717 44.3493C128.307 44.7591 127.75 44.9889 127.17 44.9878H97.5119" stroke="#017D8C" stroke-width="2.5" stroke-linecap="round" stroke-linejoin="round"/>
<path d="M97.5119 44.9873L128.719 76.1942C129.571 77.0474 129.57 78.4298 128.717 79.2819C128.307 79.6917 127.75 79.9215 127.17 79.9204H97.5119" stroke="#017D8C" stroke-width="2.5" stroke-linecap="round" stroke-linejoin="round"/>
<path d="M53.8454 44.9878H24.1814C22.9756 44.9868 21.9989 44.0084 22 42.8026C22.0005 42.2247 22.2301 41.6705 22.6385 41.2616L53.8454 10.0547" stroke="#017D8C" stroke-width="2.5" stroke-linecap="round" stroke-linejoin="round"/>
<path d="M53.8455 44.9873L22.6385 76.1942C21.7864 77.0474 21.7873 78.4298 22.6404 79.2819C23.0493 79.6903 23.6035 79.9199 24.1814 79.9204H53.8746" stroke="#017D8C" stroke-width="2.5" stroke-linecap="round" stroke-linejoin="round"/>
<path d="M97.5119 79.921L53.8454 10.0547" stroke="#017D8C" stroke-width="2.5" stroke-linecap="round" stroke-linejoin="round"/>
<path d="M53.8454 79.921L97.5119 10.0547" stroke="#017D8C" stroke-width="2.5" stroke-linecap="round" stroke-linejoin="round"/>
<path d="M27.6456 141.055L53.8455 79.9219" stroke="#017D8C" stroke-width="2.5" stroke-linecap="round" stroke-linejoin="round"/>
<path d="M123.712 141.055L97.5119 79.9219" stroke="#017D8C" stroke-width="2.5" stroke-linecap="round" stroke-linejoin="round"/>
<path d="M49.9912 88.9104L115.374 121.602" stroke="#017D8C" stroke-width="2.5" stroke-linecap="round" stroke-linejoin="round"/>
<path d="M101.36 88.9104L35.9771 121.602" stroke="#017D8C" stroke-width="2.5" stroke-linecap="round" stroke-linejoin="round"/>
</svg>
