<svg width="150" height="150" viewBox="0 0 150 150" fill="none" xmlns="http://www.w3.org/2000/svg">
<path d="M47.7159 59.7489C51.1345 59.7489 53.9058 56.9775 53.9058 53.5589C53.9058 50.1402 51.1345 47.3689 47.7159 47.3689C44.2972 47.3689 41.5259 50.1402 41.5259 53.5589C41.5259 56.9775 44.2972 59.7489 47.7159 59.7489Z" stroke="#017D8C" stroke-width="2.5" stroke-linecap="round" stroke-linejoin="round"/>
<path d="M85.4712 73.0026L53.8995 53.1356C53.8554 50.9431 52.6725 49.035 50.9169 47.9705L49.4973 10.695C49.3164 8.50792 46.1152 8.50792 45.9343 10.695L44.515 47.9705C42.7594 49.035 41.5762 50.9431 41.5324 53.1356L9.96076 73.0026C8.15705 74.2526 9.75754 77.0252 11.7421 76.0882L44.7291 58.682C45.615 59.1712 46.6322 59.4511 47.716 59.4511C48.7994 59.4511 49.8169 59.1712 50.7028 58.682L83.6895 76.0882C85.6741 77.0252 87.2749 74.2526 85.4712 73.0026Z" stroke="#017D8C" stroke-width="2.5" stroke-linecap="round" stroke-linejoin="round"/>
<path d="M50.3861 59.7485L52.1471 132.653H43.2846L45.0456 59.7485" stroke="#017D8C" stroke-width="2.5" stroke-linecap="round" stroke-linejoin="round"/>
<path d="M97.2181 85.0954C100.637 85.0954 103.408 82.3241 103.408 78.9054C103.408 75.4868 100.637 72.7155 97.2181 72.7155C93.7994 72.7155 91.0281 75.4868 91.0281 78.9054C91.0281 82.3241 93.7994 85.0954 97.2181 85.0954Z" stroke="#017D8C" stroke-width="2.5" stroke-linecap="round" stroke-linejoin="round"/>
<path d="M139.63 85.1269L103.254 76.8651C102.485 74.8116 100.735 73.4042 98.726 72.9827L85.0147 38.2915C84.1182 36.2885 81.0984 37.351 81.6537 39.4741L92.6869 75.1076C91.3842 76.6945 90.9014 78.8871 91.5878 80.9698L68.4 110.19C67.1134 111.967 69.5434 114.052 71.1045 112.509L96.4442 85.1408C97.4422 85.3082 98.4947 85.2347 99.517 84.875C100.539 84.5154 101.406 83.9136 102.079 83.1581L138.973 88.6288C141.156 88.8541 141.746 85.7074 139.63 85.1269Z" stroke="#017D8C" stroke-width="2.5" stroke-linecap="round" stroke-linejoin="round"/>
<path d="M100.368 85.0959L102.129 132.653H93.2663L95.0273 85.0959" stroke="#017D8C" stroke-width="2.5" stroke-linecap="round" stroke-linejoin="round"/>
<path d="M44.784 132.653H50.6474C54.7324 132.653 58.0489 135.969 58.0489 140.055L37.3824 140.055C37.3824 135.969 40.6989 132.653 44.784 132.653Z" stroke="#017D8C" stroke-width="2.5" stroke-linecap="round" stroke-linejoin="round"/>
<path d="M94.4444 132.653H100.308C104.393 132.653 107.709 135.969 107.709 140.055L87.0428 140.055C87.0428 135.969 90.3593 132.653 94.4444 132.653Z" stroke="#017D8C" stroke-width="2.5" stroke-linecap="round" stroke-linejoin="round"/>
</svg>
