<svg width="150" height="150" viewBox="0 0 150 150" fill="none" xmlns="http://www.w3.org/2000/svg">
<path d="M140.794 102.886C137.406 99.4976 131.913 99.4976 128.525 102.886L126.704 104.706C123.316 108.094 117.823 108.094 114.435 104.706L112.446 102.718C109.058 99.3295 103.564 99.3295 100.176 102.718L98.0925 104.801C94.7043 108.19 89.2111 108.19 85.823 104.801L83.8455 102.824C80.4555 99.4339 74.9585 99.4361 71.5712 102.829L69.6452 104.758C66.2579 108.15 60.761 108.152 57.371 104.762L55.4942 102.886C52.1061 99.4976 46.6129 99.4976 43.2248 102.886L41.4042 104.706C38.0161 108.094 32.5229 108.094 29.1347 104.706L27.146 102.718C23.7579 99.3295 18.2647 99.3295 14.8765 102.718L12.7926 104.801" stroke="#017D8C" stroke-width="2.5" stroke-linecap="round" stroke-linejoin="round"/>
<path d="M124.32 117.81L122.499 119.63C119.111 123.019 113.618 123.019 110.23 119.63L108.241 117.642C104.853 114.254 99.3597 114.254 95.9716 117.642L93.8877 119.726C90.4996 123.114 85.0064 123.114 81.6183 119.726L79.6408 117.748C76.2508 114.358 70.7538 114.36 67.3665 117.753L65.4405 119.682C62.0532 123.074 56.5562 123.077 53.1662 119.687L51.2895 117.81C47.9014 114.422 42.4082 114.422 39.02 117.81L37.1995 119.63C33.8114 123.019 28.3181 123.019 24.93 119.63L22.9413 117.642" stroke="#017D8C" stroke-width="2.5" stroke-linecap="round" stroke-linejoin="round"/>
<path d="M103.07 133.598L101.25 135.419C97.8615 138.807 92.3683 138.807 88.9802 135.419L86.9915 133.43C83.6033 130.042 78.1101 130.042 74.722 133.43L72.6381 135.514C69.25 138.902 63.7568 138.902 60.3687 135.514L58.3911 133.536C55.0011 130.146 49.5042 130.148 46.1169 133.541L44.1909 135.47" stroke="#017D8C" stroke-width="2.5" stroke-linecap="round" stroke-linejoin="round"/>
<path d="M37.2257 104.577L43.8829 58.8791C44.4292 55.1293 47.6444 52.3485 51.4338 52.3485C55.2231 52.3485 58.4384 55.1293 58.9847 58.8791L65.6418 104.577" stroke="#017D8C" stroke-width="2.5" stroke-linecap="round" stroke-linejoin="round"/>
<path d="M37.1729 60.9814V41.191H65.695V53.894" stroke="#017D8C" stroke-width="2.5" stroke-linecap="round" stroke-linejoin="round"/>
<path d="M41.4961 60.9819H32.537" stroke="#017D8C" stroke-width="2.5" stroke-linecap="round" stroke-linejoin="round"/>
<path d="M111.75 100.286L105.718 58.8791C105.171 55.1293 101.956 52.3485 98.1668 52.3485C94.3774 52.3485 91.1621 55.1293 90.6159 58.8791L84.3898 101.618" stroke="#017D8C" stroke-width="2.5" stroke-linecap="round" stroke-linejoin="round"/>
<path d="M83.9056 53.894V41.191H112.428V60.9814" stroke="#017D8C" stroke-width="2.5" stroke-linecap="round" stroke-linejoin="round"/>
<path d="M117.198 60.9819H107.862" stroke="#017D8C" stroke-width="2.5" stroke-linecap="round" stroke-linejoin="round"/>
<path d="M117.198 23.0546H32.537" stroke="#017D8C" stroke-width="2.5" stroke-linecap="round" stroke-linejoin="round"/>
<path d="M12 104.802V11.0547H22.5672V89.7892" stroke="#017D8C" stroke-width="2.5" stroke-linecap="round" stroke-linejoin="round"/>
<path d="M128.66 91.2258V11.0547H139.227V101.618" stroke="#017D8C" stroke-width="2.5" stroke-linecap="round" stroke-linejoin="round"/>
</svg>
