<svg width="150" height="150" viewBox="0 0 150 150" fill="none" xmlns="http://www.w3.org/2000/svg">
<path d="M93.1283 70.928V25.215C93.1283 16.4717 100.182 9.38379 108.884 9.38379C117.586 9.38379 124.64 16.4717 124.64 25.215H94.6688" stroke="#017D8C" stroke-width="2.5" stroke-linecap="round" stroke-linejoin="round"/>
<path d="M107.992 9.38379H35.0735C26.3718 9.38379 19.3176 16.4717 19.3176 25.215V123.437H49.9026" stroke="#017D8C" stroke-width="2.5" stroke-linecap="round" stroke-linejoin="round"/>
<path d="M34.453 31.4707H77.1826" stroke="#017D8C" stroke-width="2.5" stroke-linecap="round" stroke-linejoin="round"/>
<path d="M34.453 47.3262H77.1826" stroke="#017D8C" stroke-width="2.5" stroke-linecap="round" stroke-linejoin="round"/>
<path d="M34.453 63.1807H56.7382" stroke="#017D8C" stroke-width="2.5" stroke-linecap="round" stroke-linejoin="round"/>
<path d="M97.7922 120.879L103.59 126.704C105.211 128.333 107.84 128.333 109.461 126.704C111.083 125.074 111.083 122.433 109.462 120.804L103.664 114.979" stroke="#017D8C" stroke-width="2.5" stroke-linecap="round" stroke-linejoin="round"/>
<path d="M94.7639 129.636L97.7176 132.604C99.3391 134.233 101.968 134.233 103.59 132.604C105.211 130.975 105.211 128.333 103.59 126.704L97.7923 120.879" stroke="#017D8C" stroke-width="2.5" stroke-linecap="round" stroke-linejoin="round"/>
<path d="M89.1508 135.797L91.8456 138.504C93.4671 140.133 96.096 140.133 97.7175 138.504C99.339 136.875 99.339 134.233 97.7175 132.604L95.0227 129.896" stroke="#017D8C" stroke-width="2.5" stroke-linecap="round" stroke-linejoin="round"/>
<path d="M75.5382 114.074C77.1596 112.444 77.1596 109.803 75.5382 108.174C73.9167 106.544 71.2877 106.544 69.6662 108.174L63.8689 113.999C62.2474 115.628 62.2474 118.269 63.8689 119.899C65.4904 121.528 68.1193 121.528 69.7408 119.899L75.5382 114.074Z" stroke="#017D8C" stroke-width="2.5" stroke-linecap="round" stroke-linejoin="round"/>
<path d="M81.4101 114.074L81.4101 114.074C79.7886 112.445 77.1596 112.445 75.5381 114.074L69.7408 119.899C68.1193 121.528 68.1193 124.17 69.7408 125.799L69.7408 125.799C71.3623 127.428 73.9913 127.428 75.6128 125.799L81.4101 119.974C83.0316 118.345 83.0316 115.703 81.4101 114.074Z" stroke="#017D8C" stroke-width="2.5" stroke-linecap="round" stroke-linejoin="round"/>
<path d="M87.2822 125.873C88.9037 124.244 88.9037 121.603 87.2822 119.973C85.6607 118.344 83.0317 118.344 81.4102 119.973L75.6129 125.798C73.9914 127.428 73.9914 130.069 75.6129 131.698C77.2344 133.328 79.8634 133.328 81.4849 131.698L87.2822 125.873Z" stroke="#017D8C" stroke-width="2.5" stroke-linecap="round" stroke-linejoin="round"/>
<path d="M93.1541 125.874L93.1541 125.874C94.7756 127.503 94.7756 130.145 93.1541 131.774L87.3568 137.599C85.7353 139.228 83.1064 139.228 81.4849 137.599L81.4849 137.599C79.8634 135.97 79.8634 133.328 81.4849 131.699L87.2822 125.874C88.9037 124.245 91.5326 124.245 93.1541 125.874Z" stroke="#017D8C" stroke-width="2.5" stroke-linecap="round" stroke-linejoin="round"/>
<path d="M88.8049 89.613C86.7791 87.7295 84.3313 86.4373 81.7262 85.7984L66.0266 82.1289L60.1633 107.462L60.467 107.533C62.2382 107.947 63.7723 109.053 64.73 110.606L65.5776 111.98" stroke="#017D8C" stroke-width="2.5" stroke-linecap="round" stroke-linejoin="round"/>
<path d="M112.606 111.98L113.454 110.606C114.411 109.053 115.945 107.947 117.717 107.533L118.02 107.462L112.157 82.1289L96.4574 85.7984C93.8374 86.441 91.3765 87.7443 89.344 89.6454L81.4326 97.5981C79.043 99.999 79.043 103.892 81.4326 106.293C83.8221 108.694 87.6964 108.694 90.086 106.293L96.5926 99.7551C97.6043 98.7385 99.2447 98.7385 100.256 99.7551L115.333 114.904C116.955 116.533 116.955 119.175 115.333 120.804C113.712 122.433 111.083 122.433 109.462 120.804L103.664 114.979" stroke="#017D8C" stroke-width="2.5" stroke-linecap="round" stroke-linejoin="round"/>
<path d="M118.735 110.548L131.682 107.522L124.39 76.0137L111.442 79.0392L118.735 110.548Z" stroke="#017D8C" stroke-width="2.5" stroke-linecap="round" stroke-linejoin="round"/>
<path d="M66.7417 79.0391L53.7939 76.0137L46.5013 107.522L59.4491 110.548L66.7417 79.0391Z" stroke="#017D8C" stroke-width="2.5" stroke-linecap="round" stroke-linejoin="round"/>
</svg>
