<svg width="150" height="150" viewBox="0 0 150 150" fill="none" xmlns="http://www.w3.org/2000/svg">
<path d="M61.0627 41.0746L44.7898 41.2349C40.0022 41.2821 36.1595 45.1826 36.2069 49.947L36.5813 87.5706C36.6287 92.335 40.5482 96.1591 45.3359 96.1119L61.6087 95.9515C66.3963 95.9044 70.239 92.0038 70.1916 87.2394L69.8173 49.6158C69.7699 44.8514 65.8503 41.0274 61.0627 41.0746Z" stroke="#017D8C" stroke-width="2.5" stroke-linecap="round" stroke-linejoin="round"/>
<path d="M27.2144 46.4862L36.1716 46.3979L36.6166 91.1197L27.6594 91.208C25.2101 91.2321 23.2019 89.2729 23.1777 86.8355L22.8206 50.9461C22.7963 48.5087 24.7651 46.5103 27.2144 46.4862Z" stroke="#017D8C" stroke-width="2.5" stroke-linecap="round" stroke-linejoin="round"/>
<path d="M22.9228 61.2168L9.52777 61.3488L9.68048 76.6969L23.0755 76.5649L22.9228 61.2168Z" stroke="#017D8C" stroke-width="2.5" stroke-linecap="round" stroke-linejoin="round"/>
<path d="M127.225 119.189L123.46 119.215L122.439 16.5968L126.253 16.5704C130.83 16.5388 134.57 20.1985 134.615 24.7534L135.472 110.843C135.517 115.416 131.821 119.157 127.225 119.189Z" stroke="#017D8C" stroke-width="2.5" stroke-linecap="round" stroke-linejoin="round"/>
<path d="M122.492 21.8657L69.7957 47.4517L70.2131 89.4036L123.408 113.946L122.492 21.8657Z" stroke="#017D8C" stroke-width="2.5" stroke-linecap="round" stroke-linejoin="round"/>
<path d="M69.6274 125.309L55.169 129.539L45.2516 95.9673L60.9139 95.813L69.6274 125.309Z" stroke="#017D8C" stroke-width="2.5" stroke-linecap="round" stroke-linejoin="round"/>
</svg>
