<svg width="150" height="150" viewBox="0 0 150 150" fill="none" xmlns="http://www.w3.org/2000/svg">
<path d="M13.4592 126.032H9.6149C8.28194 126.032 7.20135 127.112 7.20135 128.445V135.641C7.20135 136.974 8.28194 138.055 9.6149 138.055H84.1807C85.5137 138.055 86.5943 136.974 86.5943 135.641V128.445C86.5943 127.112 85.5137 126.032 84.1807 126.032H80.3364" stroke="#017D8C" stroke-width="2.5" stroke-linecap="round" stroke-linejoin="round"/>
<path d="M38.3518 118.225V87.1076C38.3518 85.7747 39.4324 84.6941 40.7654 84.6941H53.6164C54.9493 84.6941 56.0299 85.7747 56.0299 87.1076V118.225" stroke="#017D8C" stroke-width="2.5" stroke-linecap="round" stroke-linejoin="round"/>
<path d="M38.3518 118.225V91.1473H31.174C29.841 91.1473 28.7604 92.2279 28.7604 93.5609V118.225" stroke="#017D8C" stroke-width="2.5" stroke-linecap="round" stroke-linejoin="round"/>
<path d="M65.6212 118.225V93.5609C65.6212 92.2279 64.5407 91.1473 63.2077 91.1473H56.0299V118.225" stroke="#017D8C" stroke-width="2.5" stroke-linecap="round" stroke-linejoin="round"/>
<path d="M65.5936 98.3042C74.4884 104.313 80.3364 114.49 80.3364 126.032" stroke="#017D8C" stroke-width="2.5" stroke-linecap="round" stroke-linejoin="round"/>
<path d="M13.4592 126.032C13.4592 114.49 19.3073 104.313 28.202 98.3042" stroke="#017D8C" stroke-width="2.5" stroke-linecap="round" stroke-linejoin="round"/>
<path d="M145.071 120.069H94.0529" stroke="#017D8C" stroke-width="2.5" stroke-linecap="round" stroke-linejoin="round"/>
<path d="M67.6356 77.3876V56.2825H92.8725L107.847 70.7556V120.068" stroke="#017D8C" stroke-width="2.5" stroke-linecap="round" stroke-linejoin="round"/>
<path d="M105.674 82.9717H81.0541" stroke="#017D8C" stroke-width="2.5" stroke-linecap="round" stroke-linejoin="round"/>
<path d="M105.674 95.1875H89.8701" stroke="#017D8C" stroke-width="2.5" stroke-linecap="round" stroke-linejoin="round"/>
<path d="M105.678 71.9666H81.0578" stroke="#017D8C" stroke-width="2.5" stroke-linecap="round" stroke-linejoin="round"/>
<path d="M131.039 120.068V13.0547" stroke="#017D8C" stroke-width="2.5" stroke-linecap="round" stroke-linejoin="round"/>
<path d="M145.071 22.8732H63.1751" stroke="#017D8C" stroke-width="2.5" stroke-linecap="round" stroke-linejoin="round"/>
<path d="M120.825 13.0547V120.068" stroke="#017D8C" stroke-width="2.5" stroke-linecap="round" stroke-linejoin="round"/>
<path d="M70.3417 17.4601V35.4297" stroke="#017D8C" stroke-width="2.5" stroke-linecap="round" stroke-linejoin="round"/>
<path d="M97.6981 24.1748L120.438 46.9147" stroke="#017D8C" stroke-width="2.5" stroke-linecap="round" stroke-linejoin="round"/>
<path d="M55.4175 30.5845L79.6551 40.2768" stroke="#017D8C" stroke-width="2.5" stroke-linecap="round" stroke-linejoin="round"/>
<path d="M131.039 13.0547H120.825" stroke="#017D8C" stroke-width="2.5" stroke-linecap="round" stroke-linejoin="round"/>
<path d="M131.039 35.4296L120.696 35.2921" stroke="#017D8C" stroke-width="2.5" stroke-linecap="round" stroke-linejoin="round"/>
<path d="M145.071 22.8732H141.159V33.1878H145.071V22.8732Z" stroke="#017D8C" stroke-width="2.5" stroke-linecap="round" stroke-linejoin="round"/>
</svg>
