<svg width="150" height="150" viewBox="0 0 150 150" fill="none" xmlns="http://www.w3.org/2000/svg">
<path d="M20.8342 114.156V46.0015C20.8342 43.6274 22.7587 41.7029 25.1328 41.7029H125.302C127.676 41.7029 129.601 43.6274 129.601 46.0015V114.156" fill="white"/>
<path d="M20.8342 114.156V46.0015C20.8342 43.6274 22.7587 41.7029 25.1328 41.7029H125.302C127.676 41.7029 129.601 43.6274 129.601 46.0015V114.156" stroke="#017D8C" stroke-width="2.5" stroke-linejoin="round"/>
<path d="M70.4653 96.5942L61.5377 89.6081H40.9709C36.8842 89.6081 33.5713 86.2952 33.5713 82.2086V69.9994C33.5713 65.9128 36.8842 62.5999 40.9709 62.5999H63.0657C67.1524 62.5999 70.4653 65.9128 70.4653 69.9994V96.5942Z" stroke="#017D8C" stroke-width="2.5" stroke-linecap="round" stroke-linejoin="round"/>
<path d="M87.1338 112.496V112.985C87.1338 114.746 85.7056 116.175 83.9438 116.175H66.4915C64.7297 116.175 63.3015 114.746 63.3015 112.985V112.496H9V115.194C9 119.535 12.5191 123.054 16.8601 123.054H133.575C137.916 123.054 141.435 119.535 141.435 115.194V112.496H87.1338Z" fill="white" stroke="#017D8C" stroke-width="2.5" stroke-linecap="round" stroke-linejoin="round"/>
<path d="M108.691 28.0547H88.0958C81.0044 28.0547 75.2555 33.8036 75.2555 40.8952C75.2555 46.674 79.0735 51.5602 84.3241 53.1715L84.7136 63.8969L93.1617 53.7355H108.691C115.783 53.7355 121.532 47.9868 121.532 40.8952C121.532 33.8036 115.783 28.0547 108.691 28.0547Z" fill="white" stroke="#017D8C" stroke-width="2.5" stroke-linecap="round" stroke-linejoin="round"/>
<path d="M83.7417 37.3942H113.045" stroke="#017D8C" stroke-width="2.5" stroke-linecap="round" stroke-linejoin="round"/>
<path d="M103.423 44.5052H84.3977" stroke="#017D8C" stroke-width="2.5" stroke-linecap="round" stroke-linejoin="round"/>
<path d="M113.711 89.7548H83.0764" stroke="#017D8C" stroke-width="2.5" stroke-linecap="round" stroke-linejoin="round"/>
<path d="M62.063 78.7204C63.0962 78.7204 63.9338 77.8828 63.9338 76.8496C63.9338 75.8164 63.0962 74.9789 62.063 74.9789C61.0298 74.9789 60.1923 75.8164 60.1923 76.8496C60.1923 77.8828 61.0298 78.7204 62.063 78.7204Z" fill="#017D8C"/>
<path d="M52.0183 78.7204C53.0515 78.7204 53.889 77.8828 53.889 76.8496C53.889 75.8164 53.0515 74.9789 52.0183 74.9789C50.9851 74.9789 50.1475 75.8164 50.1475 76.8496C50.1475 77.8828 50.9851 78.7204 52.0183 78.7204Z" fill="#017D8C"/>
<path d="M42.3021 78.7204C43.3353 78.7204 44.1728 77.8828 44.1728 76.8496C44.1728 75.8164 43.3353 74.9789 42.3021 74.9789C41.2689 74.9789 40.4313 75.8164 40.4313 76.8496C40.4313 77.8828 41.2689 78.7204 42.3021 78.7204Z" fill="#017D8C"/>
<path d="M113.711 83.317H83.0764" stroke="#017D8C" stroke-width="2.5" stroke-linecap="round" stroke-linejoin="round"/>
<path d="M113.711 76.8812H83.0764" stroke="#017D8C" stroke-width="2.5" stroke-linecap="round" stroke-linejoin="round"/>
<path d="M113.711 71.1857H94.0389" stroke="#017D8C" stroke-width="2.5" stroke-linecap="round" stroke-linejoin="round"/>
<path d="M88.0644 71.1857H83.076" stroke="#017D8C" stroke-width="2.5" stroke-linecap="round" stroke-linejoin="round"/>
</svg>
