<svg width="150" height="151" viewBox="0 0 150 151" fill="none" xmlns="http://www.w3.org/2000/svg">
<path d="M96.2115 95.2082H87.8288C84.5888 95.2082 81.9535 92.5736 81.9535 89.3342C81.9535 86.0948 84.5888 83.4601 87.8288 83.4601H96.2115C99.4515 83.4601 102.087 86.0948 102.087 89.3342C102.087 92.5736 99.4515 95.2082 96.2115 95.2082ZM87.8288 86.045C86.0146 86.045 84.5396 87.5206 84.5396 89.3342C84.5396 91.1477 86.0146 92.6233 87.8288 92.6233H96.2115C98.0257 92.6233 99.5007 91.1477 99.5007 89.3342C99.5007 87.5206 98.0257 86.045 96.2115 86.045H87.8288Z" fill="#017D8C"/>
<path d="M96.2115 86.0229H87.8288C84.5888 86.0229 81.9535 83.3876 81.9535 80.1482C81.9535 76.9088 84.5888 74.2742 87.8288 74.2742H96.2115C99.4515 74.2742 102.087 76.9088 102.087 80.1482C102.087 83.3876 99.4515 86.0229 96.2115 86.0229ZM87.8288 76.859C86.0146 76.859 84.5396 78.3346 84.5396 80.1482C84.5396 81.9618 86.0146 83.438 87.8288 83.438H96.2115C98.0257 83.438 99.5007 81.9618 99.5007 80.1482C99.5007 78.3346 98.0257 76.859 96.2115 76.859H87.8288Z" fill="#017D8C"/>
<path d="M96.2115 104.358H87.8288C84.5888 104.358 81.9535 101.723 81.9535 98.484C81.9535 95.2446 84.5888 92.61 87.8288 92.61H96.2115C99.4515 92.61 102.087 95.2446 102.087 98.484C102.087 101.723 99.4515 104.358 96.2115 104.358ZM87.8288 95.1949C86.0146 95.1949 84.5396 96.6704 84.5396 98.484C84.5396 100.298 86.0146 101.773 87.8288 101.773H96.2115C98.0257 101.773 99.5007 100.298 99.5007 98.484C99.5007 96.6704 98.0257 95.1949 96.2115 95.1949H87.8288Z" fill="#017D8C"/>
<path d="M93.9241 111.919H87.02C84.2262 111.919 81.9535 109.646 81.9535 106.853C81.9535 104.06 84.2262 101.787 87.02 101.787H93.9241C96.7179 101.787 98.9906 104.06 98.9906 106.853C98.9906 109.646 96.7179 111.919 93.9241 111.919ZM87.02 104.372C85.652 104.372 84.5396 105.485 84.5396 106.853C84.5396 108.221 85.652 109.334 87.02 109.334H93.9241C95.2921 109.334 96.4045 108.221 96.4045 106.853C96.4045 105.485 95.2921 104.372 93.9241 104.372H87.02Z" fill="#017D8C"/>
<path d="M63.3419 150.093C63.1465 150.093 62.9523 150.05 62.774 149.962L35.4318 136.583C34.7915 136.27 34.526 135.498 34.8369 134.857L39.4228 125.425C39.7916 124.666 39.8469 123.809 39.5765 123.009L34.9242 109.209C33.8253 106.192 32.9563 102.58 34.9242 98.8911L40.2316 88.94L45.2932 80.1707C46.1979 78.6029 47.6655 77.4795 49.4256 77.0081C51.182 76.538 53.0184 76.7758 54.5855 77.6811C56.1539 78.5863 57.2773 80.0539 57.7481 81.8134C58.2201 83.5723 57.9816 85.4056 57.0757 86.974L50.447 97.7578C51.8765 98.3466 52.9643 99.3649 53.8603 100.917L57.2269 106.747C59.2698 110.285 59.7614 120.039 54.4085 124.725C53.8714 125.195 53.0565 125.143 52.5845 124.603C52.1137 124.066 52.1678 123.249 52.7049 122.779C56.7758 119.217 56.6173 110.863 54.9874 108.04L51.6208 102.21C50.7752 100.744 49.8275 100.074 48.2419 99.8191C47.8154 99.7503 47.4516 99.4737 47.2721 99.0816C47.0927 98.6895 47.1197 98.2335 47.3459 97.8654L54.8547 85.6502C55.3967 84.7105 55.5442 83.5748 55.2517 82.4827C54.9579 81.3906 54.2635 80.4804 53.2925 79.9206C52.3227 79.3595 51.1882 79.2126 50.0942 79.5051C49.0028 79.7976 48.092 80.4933 47.5327 81.4631L42.492 90.1949L37.2055 100.108C36.0046 102.358 36.0513 104.747 37.364 108.354L42.0274 122.183C42.5141 123.63 42.4158 125.183 41.7484 126.555L37.7266 134.828L62.7445 147.069L66.2107 139.909L64.4936 138.742C63.9429 138.368 63.766 137.637 64.0855 137.053L66.0595 133.444C66.3115 132.983 66.8204 132.716 67.3391 132.78C67.639 132.81 74.9782 133.418 79.4547 123.1C79.7374 122.446 80.4945 122.141 81.1558 122.428C81.8097 122.712 82.1109 123.473 81.8269 124.128C77.4586 134.2 70.4414 135.314 67.9499 135.376L66.9175 137.264L68.5879 138.399C69.1189 138.759 69.3045 139.455 69.0254 140.032L64.5059 149.364C64.3559 149.674 64.0892 149.911 63.7635 150.023C63.627 150.07 63.4845 150.093 63.3419 150.093Z" fill="#017D8C"/>
<path fill-rule="evenodd" clip-rule="evenodd" d="M90.7431 110.083V117C90.7431 119.472 88.731 121.483 86.2592 121.483H79.2996C79.2252 120.748 78.6072 120.167 77.8532 120.167H63.0471C62.2931 120.167 61.6751 120.748 61.6008 121.483H54.642L54.7819 123.525L53.5924 124.304H83.2027L86.2592 124.304C90.2871 124.304 93.5627 121.027 93.5627 117V110.091L90.7431 110.083Z" fill="#017D8C"/>
<path fill-rule="evenodd" clip-rule="evenodd" d="M47.3373 55.6998V78.885H50.1569V55.6998" fill="#017D8C"/>
<path fill-rule="evenodd" clip-rule="evenodd" d="M93.5627 55.6998V75.2644L90.743 75.1171V55.6998H93.5627Z" fill="#017D8C"/>
<path fill-rule="evenodd" clip-rule="evenodd" d="M75.1616 48.3953H59.3318V51.216H61.6567C61.8406 51.8129 62.3921 52.2526 63.0471 52.2526H75.2084L75.1616 48.3953Z" fill="#017D8C"/>
<path d="M59.3318 61.0548L52.2341 55.5006H35.8829C32.6339 55.5006 30 52.8668 30 49.6178V39.9112C30 36.6622 32.6339 34.0283 35.8829 34.0283H53.4489C56.6979 34.0283 59.3318 36.6622 59.3318 39.9112V61.0548Z" stroke="#017D8C" stroke-width="2" stroke-linecap="round" stroke-linejoin="round"/>
<path d="M79.5869 86.8093H59.1975" stroke="#017D8C" stroke-width="2" stroke-linecap="round" stroke-linejoin="round"/>
<path d="M52.6517 46.8436C53.4731 46.8436 54.139 46.1777 54.139 45.3563C54.139 44.5349 53.4731 43.869 52.6517 43.869C51.8303 43.869 51.1644 44.5349 51.1644 45.3563C51.1644 46.1777 51.8303 46.8436 52.6517 46.8436Z" fill="#017D8C"/>
<path d="M44.6659 46.8436C45.4873 46.8436 46.1532 46.1777 46.1532 45.3563C46.1532 44.5349 45.4873 43.869 44.6659 43.869C43.8445 43.869 43.1786 44.5349 43.1786 45.3563C43.1786 46.1777 43.8445 46.8436 44.6659 46.8436Z" fill="#017D8C"/>
<path d="M36.9413 46.8436C37.7627 46.8436 38.4286 46.1777 38.4286 45.3563C38.4286 44.5349 37.7627 43.869 36.9413 43.869C36.1199 43.869 35.454 44.5349 35.454 45.3563C35.454 46.1777 36.1199 46.8436 36.9413 46.8436Z" fill="#017D8C"/>
<path d="M79.5869 81.6914H59.1975" stroke="#017D8C" stroke-width="2" stroke-linecap="round" stroke-linejoin="round"/>
<path d="M79.5869 76.5734H59.1975" stroke="#017D8C" stroke-width="2" stroke-linecap="round" stroke-linejoin="round"/>
<path d="M79.5868 72.0461H66.4938" stroke="#017D8C" stroke-width="2" stroke-linecap="round" stroke-linejoin="round"/>
<path d="M62.5173 72.0461H59.1973" stroke="#017D8C" stroke-width="2" stroke-linecap="round" stroke-linejoin="round"/>
<path d="M97.3034 11.0547H79.4764C76.3744 11.0547 73.8597 13.8675 73.8597 17.3373C73.8597 20.1647 75.5298 22.5554 77.8266 23.3438L75.6494 30.3791L81.6924 23.6197H97.3034C100.405 23.6197 102.92 20.807 102.92 17.3373C102.92 13.8675 100.405 11.0547 97.3034 11.0547Z" stroke="#017D8C" stroke-width="2" stroke-linecap="round" stroke-linejoin="round"/>
<path d="M80.4515 15.2856H94.6768" stroke="#017D8C" stroke-width="2" stroke-linecap="round" stroke-linejoin="round"/>
<path d="M90.0058 18.9663H80.77" stroke="#017D8C" stroke-width="2" stroke-linecap="round" stroke-linejoin="round"/>
<path d="M99.6106 43.5898H80.0072C76.9052 43.5898 74.3905 46.4027 74.3905 49.8724C74.3905 52.6999 76.0606 55.0906 78.3574 55.8789L76.1802 62.9143L82.2231 56.1549H99.6106C102.713 56.1549 105.227 53.3422 105.227 49.8724C105.227 46.4027 102.713 43.5898 99.6106 43.5898Z" stroke="#017D8C" stroke-width="2" stroke-linecap="round" stroke-linejoin="round"/>
<path d="M80.9824 47.8207H96.9841" stroke="#017D8C" stroke-width="2" stroke-linecap="round" stroke-linejoin="round"/>
<path d="M100.737 51.5022H81.3009" stroke="#017D8C" stroke-width="2" stroke-linecap="round" stroke-linejoin="round"/>
<path d="M91.7277 26.8472H114.076C117.178 26.8472 119.693 29.66 119.693 33.1298C119.693 35.9572 118.023 38.3479 115.726 39.1363L117.903 46.1716L111.861 39.4122H91.7277C88.6257 39.4122 86.111 36.5995 86.111 33.1298C86.111 29.66 88.6257 26.8472 91.7277 26.8472Z" stroke="#017D8C" stroke-width="2" stroke-linecap="round" stroke-linejoin="round"/>
<path d="M114.393 31.0781H94.3541" stroke="#017D8C" stroke-width="2" stroke-linecap="round" stroke-linejoin="round"/>
<path d="M97.0874 34.7596H112.783" stroke="#017D8C" stroke-width="2" stroke-linecap="round" stroke-linejoin="round"/>
</svg>
