<svg width="150" height="150" viewBox="0 0 150 150" fill="none" xmlns="http://www.w3.org/2000/svg">
<path d="M67.9447 70.878H29.2211C20.9699 70.878 14.2821 64.1903 14.2821 55.939C14.2821 47.6877 20.9699 41 29.2211 41H86.2838C94.5351 41 101.223 47.6877 101.223 55.939" class="stroke-secondary" stroke="#86C543" stroke-width="2.5" stroke-linecap="round" stroke-linejoin="round"/>
<path d="M107.67 73.1912L106.395 70.9744C105.26 69.0039 105.94 66.4873 107.911 65.3522C109.881 64.217 112.398 64.8971 113.533 66.8675L122.084 81.7101L126.566 89.4902C127.701 91.4606 127.021 93.9772 125.05 95.1124" class="stroke-primary" stroke="#017D8C" stroke-width="2.5" stroke-linecap="round" stroke-linejoin="round"/>
<path d="M103.167 107.717C103.167 107.717 86.7497 105.356 86.0804 105.238L77.3954 103.696C74.9859 103.267 73.3796 100.965 73.8026 98.5553C74.2309 96.1458 76.5333 94.5395 78.9429 94.9625L89.0842 96.874C90.6638 96.3172 91.3545 94.4645 90.5192 93.0134L73.674 63.1569C72.5389 61.1864 73.2189 58.6698 75.1894 57.5347C77.1598 56.3995 79.6764 57.0795 80.8116 59.05L89.775 75.2205" class="stroke-primary" stroke="#017D8C" stroke-width="2.5" stroke-linecap="round" stroke-linejoin="round"/>
<path d="M99.1827 74.9581L97.9083 72.7413C96.7731 70.7709 97.4532 68.2543 99.4236 67.1191C101.394 65.984 103.911 66.664 105.046 68.6345L107.878 73.5552" class="stroke-primary" stroke="#017D8C" stroke-width="2.5" stroke-linecap="round" stroke-linejoin="round"/>
<path d="M91.499 78.1119L89.4215 74.5084C88.2863 72.5379 88.9664 70.0213 90.9368 68.8862C92.9072 67.751 95.4239 68.431 96.559 70.4015L99.3915 75.3222" class="stroke-primary" stroke="#017D8C" stroke-width="2.5" stroke-linecap="round" stroke-linejoin="round"/>
<path d="M103.479 114.046L107.285 120.653C108.752 123.2 112.006 124.076 114.553 122.609L132.106 112.499C134.653 111.032 135.529 107.778 134.062 105.231L130.256 98.6235C128.789 96.0763 125.535 95.2007 122.988 96.6677L105.435 106.777C102.888 108.244 102.012 111.499 103.479 114.046Z" class="stroke-primary" stroke="#017D8C" stroke-width="2.5" stroke-linecap="round" stroke-linejoin="round"/>
<path d="M124.151 108.113C125.224 108.113 126.094 107.243 126.094 106.169C126.094 105.096 125.224 104.226 124.151 104.226C123.077 104.226 122.207 105.096 122.207 106.169C122.207 107.243 123.077 108.113 124.151 108.113Z" class="stroke-primary" stroke="#017D8C" stroke-width="2.5" stroke-linecap="round" stroke-linejoin="round"/>
</svg>
