<svg width="150" height="150" viewBox="0 0 150 150" fill="none" xmlns="http://www.w3.org/2000/svg">
<path class="stroke-primary" d="M31.3916 38.7833C31.3916 45.8433 37.1149 51.5666 44.1749 51.5666C51.235 51.5666 56.9582 45.8433 56.9582 38.7833C56.9582 31.7232 51.2767 26 44.2167 26C37.1566 26 31.3916 31.7232 31.3916 38.7833Z" stroke="#515457" stroke-width="4" stroke-linecap="round" stroke-linejoin="round"/>
<path class="stroke-primary" d="M63.3917 83.6083V77.2167C63.3917 66.6057 54.7859 58 44.1749 58C33.564 58 25 66.6057 25 77.2167V90H31.3916L34.6084 122H53.7833L56.6658 93.2167" stroke="#515457" stroke-width="4" stroke-linecap="round" stroke-linejoin="round"/>
<path class="stroke-primary" d="M76.2167 77.2167H114.608C118.159 77.2167 121 74.3342 121 70.825V32.3916C121 28.8407 118.117 26 114.608 26H69.7833" stroke="#515457" stroke-width="4" stroke-linecap="round" stroke-linejoin="round"/>
<path class="stroke-secondary" d="M108.217 64.3917H76.2167" stroke="#515457" stroke-width="4" stroke-linecap="round" stroke-linejoin="round"/>
<path class="stroke-secondary" d="M67.1514 101.196C67.1514 107.379 72.1645 112.392 78.3473 112.392C84.53 112.392 89.5431 107.379 89.5431 101.196C89.5431 95.0131 84.53 90 78.3473 90C72.1645 90 67.1514 95.0131 67.1514 101.196Z" stroke="#515457" stroke-width="4" stroke-linecap="round" stroke-linejoin="round"/>
<path class="stroke-secondary" d="M92.2166 122C85.6996 114.355 74.2114 113.436 66.5247 119.953C65.7727 120.58 65.1043 121.29 64.4777 122" stroke="#515457" stroke-width="4" stroke-linecap="round" stroke-linejoin="round"/>
<path class="stroke-secondary" d="M95.9346 101.196C95.9346 107.379 100.948 112.392 107.13 112.392C113.313 112.392 118.326 107.379 118.326 101.196C118.326 95.0131 113.313 90 107.13 90C100.948 90 95.9346 95.0131 95.9346 101.196Z" stroke="#515457" stroke-width="4" stroke-linecap="round" stroke-linejoin="round"/>
<path class="stroke-secondary" d="M121 122C114.483 114.355 102.995 113.436 95.3081 119.953C94.5562 120.58 93.8877 121.29 93.2611 122" stroke="#515457" stroke-width="4" stroke-linecap="round" stroke-linejoin="round"/>
<path class="stroke-secondary" d="M101.783 64.3917V38.7833" stroke="#515457" stroke-width="4" stroke-linecap="round" stroke-linejoin="round"/>
<path class="stroke-primary" d="M88.9999 64.3916V48.3916" stroke="#515457" stroke-width="4" stroke-linecap="round" stroke-linejoin="round"/>
</svg>
