<svg width="150" height="150" viewBox="0 0 150 150" fill="none" xmlns="http://www.w3.org/2000/svg">
<path d="M88.0236 73.0049C88.0236 53.3796 72.1157 37.4717 52.4903 37.4717C32.865 37.4717 16.962 53.3796 16.962 73.0049V89.2045H88.0236V73.0049Z" class="stroke-primary" stroke="#017D8C" stroke-width="2.5" stroke-linecap="round" stroke-linejoin="round"/>
<path d="M103.195 90.4058C95.3794 90.4058 89.0469 84.0733 89.0469 76.2577C89.0469 68.4422 95.3794 62.1097 103.195 62.1097H108.104V90.4058H103.195Z" class="stroke-primary" stroke="#017D8C" stroke-width="2.5" stroke-linecap="round" stroke-linejoin="round"/>
<path d="M16.962 76.2578H86.6987" class="stroke-primary" stroke="#017D8C" stroke-width="2.5" stroke-linecap="round" stroke-linejoin="round"/>
<path d="M22.7359 90.4058V104.786C22.7359 104.786 25.2225 120.432 41.5555 112.315C51.8328 107.208 55.5009 91.7504 55.5009 91.7504" class="stroke-primary" stroke="#017D8C" stroke-width="2.5" stroke-linecap="round" stroke-linejoin="round"/>
<path d="M122.741 76.2578H138.303" class="stroke-secondary" stroke="#A4D472" stroke-width="2.5" stroke-linecap="round" stroke-linejoin="round"/>
<path d="M118.169 63.3356L138.303 59.3463" class="stroke-secondary" stroke="#A4D472" stroke-width="2.5" stroke-linecap="round" stroke-linejoin="round"/>
<path d="M118.169 86.9553L134.798 94.0441" class="stroke-secondary" stroke="#A4D472" stroke-width="2.5" stroke-linecap="round" stroke-linejoin="round"/>
</svg>
