<svg width="150" height="150" viewBox="0 0 150 150" fill="none" xmlns="http://www.w3.org/2000/svg">
<path d="M108.928 102.77V107.308C108.928 114.869 102.776 121 95.188 121H35V17.9999H87.1309L108.928 37.9451V46.5423" class="stroke-primary" stroke="#017D8C" stroke-width="2.5" stroke-linecap="round" stroke-linejoin="round"/>
<path d="M43.3063 35.4435H95.637" class="stroke-primary" stroke="#017D8C" stroke-width="2.5" stroke-linecap="round" stroke-linejoin="round"/>
<path d="M43.3063 44.5806H95.637" class="stroke-primary" stroke="#017D8C" stroke-width="2.5" stroke-linecap="round" stroke-linejoin="round"/>
<path d="M43.3063 57.8708H71.5482" class="stroke-primary" stroke="#017D8C" stroke-width="2.5" stroke-linecap="round" stroke-linejoin="round"/>
<path d="M43.3063 65.3467H65.7337" class="stroke-primary" stroke="#017D8C" stroke-width="2.5" stroke-linecap="round" stroke-linejoin="round"/>
<path d="M103.113 96.9113C115.041 96.9113 124.71 87.2421 124.71 75.3145C124.71 63.3869 115.041 53.7177 103.113 53.7177C91.1858 53.7177 81.5166 63.3869 81.5166 75.3145C81.5166 87.2421 91.1858 96.9113 103.113 96.9113Z" class="stroke-primary" stroke="#017D8C" stroke-width="2.5" stroke-miterlimit="10"/>
<path d="M92.3146 75.5474L99.3624 82.7903L113.911 67.8387" class="stroke-primary" stroke="#017D8C" stroke-width="2.5" stroke-linecap="round" stroke-linejoin="round"/>
<path d="M43.3063 80.2983H63.2418" class="stroke-primary" stroke="#017D8C" stroke-width="2.5" stroke-linecap="round" stroke-linejoin="round"/>
<path d="M43.3063 90.2661H71.5482" class="stroke-primary" stroke="#017D8C" stroke-width="2.5" stroke-linecap="round" stroke-linejoin="round"/>
<path d="M43.3063 103.556H95.637" class="stroke-primary" stroke="#017D8C" stroke-width="2.5" stroke-linecap="round" stroke-linejoin="round"/>
<path d="M43.3063 111.032H95.637" class="stroke-primary" stroke="#017D8C" stroke-width="2.5" stroke-linecap="round" stroke-linejoin="round"/>
<path d="M108.928 102.77V107.308C108.928 114.869 102.776 121 95.188 121H35V17.9999H87.1309L108.928 37.9451V46.5423" class="stroke-primary" stroke="#017D8C" stroke-width="2.5" stroke-linecap="round" stroke-linejoin="round"/>
<path d="M103.113 96.9113C115.041 96.9113 124.71 87.2421 124.71 75.3145C124.71 63.3869 115.041 53.7177 103.113 53.7177C91.1858 53.7177 81.5166 63.3869 81.5166 75.3145C81.5166 87.2421 91.1858 96.9113 103.113 96.9113Z" class="stroke-secondary" stroke="#A4D472" stroke-width="2.5" stroke-miterlimit="10"/>
<path d="M92.3146 75.5474L99.3624 82.7903L113.911 67.8387" class="stroke-secondary" stroke="#A4D472" stroke-width="2.5" stroke-linecap="round" stroke-linejoin="round"/>
</svg>
