<svg width="150" height="150" viewBox="0 0 150 150" fill="none" xmlns="http://www.w3.org/2000/svg">
<g clip-path="url(#clip0_783_16130)">
<path d="M98.584 43.8261C102.953 43.8261 106.494 40.2989 106.494 35.948C106.494 31.597 102.953 28.0698 98.584 28.0698C94.2153 28.0698 90.6738 31.597 90.6738 35.948C90.6738 40.2989 94.2153 43.8261 98.584 43.8261Z" class="stroke-primary" stroke="#017D8C" stroke-width="2.3" stroke-linecap="round" stroke-linejoin="round"/>
<path d="M98.5841 65.3373C114.881 65.3373 128.093 52.1792 128.093 35.9478C128.093 19.7164 114.881 6.55829 98.5841 6.55829C82.2868 6.55829 69.0752 19.7164 69.0752 35.9478C69.0752 52.1792 82.2868 65.3373 98.5841 65.3373Z" class="stroke-primary" stroke="#017D8C" stroke-width="2.3" stroke-linecap="round" stroke-linejoin="round"/>
<path d="M47.1424 6.55829H98.5841" class="stroke-primary" stroke="#017D8C" stroke-width="2.3" stroke-linecap="round" stroke-linejoin="round"/>
<path d="M69.0752 65.3288H98.5841" class="stroke-primary" stroke="#017D8C" stroke-width="2.3" stroke-linecap="round" stroke-linejoin="round"/>
<path d="M18.5666 35.948C18.5666 32.0885 19.3299 28.2667 20.8128 24.701C22.2958 21.1353 24.4694 17.8955 27.2096 15.1664C29.9497 12.4373 33.2028 10.2725 36.783 8.79554C40.3631 7.31857 44.2004 6.55847 48.0755 6.55847" class="stroke-primary" stroke="#017D8C" stroke-width="2.3" stroke-linecap="round" stroke-linejoin="round"/>
<path d="M69.0751 34.0295V105.342H18.5666V35.9479" class="stroke-primary" stroke="#017D8C" stroke-width="2.3" stroke-linecap="round" stroke-linejoin="round"/>
<path d="M69.0751 77.8879H18.5666V105.333H69.0751V77.8879Z" class="stroke-primary" stroke="#017D8C" stroke-width="2.3" stroke-linecap="round" stroke-linejoin="round"/>
<path d="M69.0751 50.3997H18.5666V77.8452H69.0751V50.3997Z" class="stroke-primary" stroke="#017D8C" stroke-width="2.3" stroke-linecap="round" stroke-linejoin="round"/>
<path d="M68.8353 105.342L54.0252 109.912C51.3772 110.726 49.0847 112.411 47.522 114.69C45.9593 116.97 45.2189 119.71 45.4217 122.462L45.9353 129.377L39.0011 130.093C37.1968 130.279 35.4563 130.86 33.9051 131.797C32.3539 132.733 31.0306 134 30.0307 135.508C29.0309 137.015 28.3793 138.724 28.1229 140.513C27.8666 142.301 28.0119 144.124 28.5484 145.85L28.7367 146.438L76.9681 131.56L68.8353 105.342Z" class="stroke-primary" stroke="#017D8C" stroke-width="2.3" stroke-linecap="round" stroke-linejoin="round"/>
<path d="M72.0886 22.9966H21.5801" class="stroke-primary" stroke="#017D8C" stroke-width="2.3" stroke-linecap="round" stroke-linejoin="round"/>
<path d="M30.6031 134.714L48.2212 113.766" class="stroke-primary" stroke="#017D8C" stroke-width="2.3" stroke-linecap="round" stroke-linejoin="round"/>
<path d="M43.8215 71.1011C47.689 71.1011 50.8242 67.9786 50.8242 64.1268C50.8242 60.2749 47.689 57.1524 43.8215 57.1524C39.954 57.1524 36.8188 60.2749 36.8188 64.1268C36.8188 67.9786 39.954 71.1011 43.8215 71.1011Z" class="stroke-primary" stroke="#017D8C" stroke-width="2" stroke-linecap="round" stroke-linejoin="round"/>
<path d="M43.8215 98.5636C47.689 98.5636 50.8242 95.4411 50.8242 91.5892C50.8242 87.7374 47.689 84.6149 43.8215 84.6149C39.954 84.6149 36.8188 87.7374 36.8188 91.5892C36.8188 95.4411 39.954 98.5636 43.8215 98.5636Z" class="stroke-primary" stroke="#017D8C" stroke-width="2" stroke-linecap="round" stroke-linejoin="round"/>
<path d="M46.7311 119.274C47.9388 118.904 49.2246 118.866 50.4519 119.166C51.6791 119.465 52.802 120.09 53.7012 120.974C54.6004 121.858 55.2423 122.969 55.5587 124.187C55.8752 125.405 55.8543 126.686 55.4984 127.894C55.1425 129.101 54.4648 130.19 53.5373 131.045C52.6098 131.899 51.4671 132.488 50.2308 132.747C48.9944 133.007 47.7105 132.928 46.5155 132.52C45.3205 132.111 44.259 131.387 43.4438 130.426" class="stroke-primary" stroke="#017D8C" stroke-width="2" stroke-linecap="round" stroke-linejoin="round"/>
<path d="M46.8341 44.4313C50.7015 44.4313 53.8368 41.3088 53.8368 37.457C53.8368 33.6051 50.7015 30.4826 46.8341 30.4826C42.9666 30.4826 39.8314 33.6051 39.8314 37.457C39.8314 41.3088 42.9666 44.4313 46.8341 44.4313Z" class="stroke-primary" stroke="#017D8C" stroke-width="2" stroke-linecap="round" stroke-linejoin="round"/>
<path d="M41.689 66.011L42.4595 65.1584C42.6453 65.3521 42.8623 65.5134 43.1015 65.6358C43.3665 65.7708 43.66 65.8409 43.9576 65.8405C44.0793 65.8402 44.2003 65.8231 44.3171 65.7894C44.4313 65.7621 44.5352 65.7029 44.6168 65.6188C44.656 65.5748 44.686 65.5236 44.7051 65.468C44.7242 65.4123 44.732 65.3534 44.7281 65.2948C44.7281 65.2083 44.7041 65.1236 44.6588 65.0499C44.6135 64.9762 44.5485 64.9163 44.4712 64.877C44.1789 64.7245 43.8682 64.61 43.5467 64.536C42.468 64.2376 41.9373 63.6834 41.9373 62.899C41.9276 62.6999 41.9608 62.501 42.0346 62.3157C42.1084 62.1305 42.2212 61.963 42.3653 61.8247C42.6876 61.5332 43.0961 61.3537 43.5295 61.3131V60.5458H44.3856V61.3046C44.7025 61.3307 45.0096 61.4268 45.2845 61.5859C45.4786 61.7025 45.6595 61.8397 45.8238 61.9952L45.0876 62.8478C44.9572 62.7257 44.8102 62.6224 44.651 62.5409C44.4466 62.4294 44.2162 62.3736 43.9832 62.3789C43.8588 62.3797 43.735 62.3969 43.6151 62.43C43.498 62.4577 43.3893 62.5134 43.2984 62.5921C43.2557 62.6307 43.2221 62.6783 43.1999 62.7313C43.1777 62.7844 43.1675 62.8416 43.17 62.899C43.168 62.9836 43.1914 63.0669 43.2371 63.1383C43.2828 63.2096 43.3489 63.2659 43.4268 63.2997C43.6792 63.4174 43.9431 63.5089 44.2144 63.5726C44.5092 63.6429 44.796 63.7429 45.0705 63.871C45.3321 63.9957 45.5608 64.1796 45.7382 64.4081C45.9105 64.659 46.0002 64.9569 45.9951 65.2607C46.0031 65.5349 45.9286 65.805 45.781 66.0365C45.638 66.2584 45.4407 66.4404 45.2075 66.5653C44.9568 66.7047 44.685 66.8026 44.4028 66.8551V67.7077H43.5467V66.9148C42.8466 66.855 42.1894 66.5534 41.689 66.0621V66.011Z" fill="#017D8C"/>
<path d="M41.689 93.4821L42.4595 92.6295C42.6434 92.8229 42.8609 92.9818 43.1015 93.0984C43.3644 93.2399 43.6588 93.3132 43.9576 93.3116C44.0793 93.3114 44.2003 93.2941 44.3171 93.2604C44.4298 93.2296 44.5329 93.171 44.6168 93.0899C44.656 93.0459 44.686 92.9946 44.7051 92.939C44.7242 92.8834 44.732 92.8246 44.7281 92.7659C44.7278 92.6784 44.7037 92.5926 44.6585 92.5176C44.6133 92.4425 44.5486 92.381 44.4712 92.3396C44.1765 92.1946 43.8664 92.083 43.5467 92.0071C42.468 91.7001 41.9373 91.1544 41.9373 90.3615C41.9288 90.1638 41.9626 89.9666 42.0364 89.7829C42.1102 89.5992 42.2223 89.4331 42.3653 89.2957C42.6832 88.9976 43.0941 88.8171 43.5295 88.7842V88.0253H44.3856V88.7842C44.7025 88.8103 45.0096 88.9064 45.2845 89.0655C45.4763 89.1823 45.6568 89.3165 45.8238 89.4663L45.0876 90.3189C44.9528 90.2023 44.8065 90.0995 44.651 90.012C44.3325 89.8449 43.962 89.8053 43.6151 89.9011C43.4973 89.9316 43.3886 89.9901 43.2984 90.0716C43.2564 90.109 43.2231 90.155 43.2009 90.2066C43.1788 90.2582 43.1682 90.3139 43.17 90.37C43.1663 90.4561 43.1888 90.5412 43.2346 90.6143C43.2805 90.6873 43.3475 90.7449 43.4268 90.7792C43.6808 90.8932 43.9443 90.9845 44.2144 91.0521C44.5115 91.1144 44.7992 91.2147 45.0705 91.3505C45.3321 91.4752 45.5608 91.6592 45.7382 91.8877C45.9126 92.1375 46.0025 92.4361 45.9951 92.7403C46.0041 93.0118 45.9294 93.2797 45.781 93.5077C45.6383 93.7319 45.441 93.9167 45.2075 94.0448C44.9581 94.1853 44.6856 94.2805 44.4028 94.3261V95.1788H43.5467V94.3858C43.1664 94.3562 42.7962 94.2488 42.4595 94.0703C42.1715 93.9184 41.911 93.7196 41.689 93.4821V93.4821Z" fill="#017D8C"/>
<path d="M47.3133 128.362L47.8012 127.322C48.0366 127.45 48.2909 127.539 48.5546 127.587C48.8547 127.639 49.163 127.618 49.4534 127.527C49.5687 127.492 49.6783 127.44 49.7788 127.373C49.8749 127.311 49.9543 127.226 50.0099 127.126C50.0337 127.071 50.046 127.011 50.046 126.951C50.046 126.891 50.0337 126.832 50.0099 126.777C49.9829 126.693 49.9335 126.619 49.8671 126.562C49.8007 126.505 49.7198 126.467 49.6332 126.453C49.3087 126.393 48.9777 126.376 48.6487 126.401C47.5358 126.401 46.8595 126.069 46.6284 125.31C46.5607 125.123 46.5333 124.924 46.548 124.725C46.5628 124.527 46.6193 124.334 46.714 124.159C46.9326 123.776 47.2729 123.476 47.6814 123.306L47.4503 122.582L48.2378 122.334L48.469 123.059C48.7762 122.99 49.0949 122.99 49.4021 123.059C49.6217 123.119 49.8364 123.196 50.0441 123.289L49.5819 124.287C49.4163 124.217 49.2442 124.162 49.0682 124.125C48.8429 124.08 48.6098 124.095 48.3919 124.168C48.2712 124.203 48.1559 124.254 48.0495 124.321C47.9479 124.386 47.863 124.474 47.8012 124.577C47.7756 124.628 47.7622 124.685 47.7622 124.743C47.7622 124.801 47.7756 124.858 47.8012 124.909C47.8247 124.991 47.8724 125.064 47.938 125.119C48.0036 125.174 48.0842 125.208 48.1693 125.216C48.4539 125.247 48.7409 125.247 49.0254 125.216C49.3099 125.185 49.597 125.185 49.8815 125.216C50.169 125.254 50.4425 125.363 50.6776 125.532C50.9297 125.727 51.1102 126 51.1913 126.308C51.2679 126.569 51.2679 126.847 51.1913 127.109C51.1218 127.367 50.986 127.602 50.7975 127.791C50.6003 127.997 50.3686 128.167 50.1126 128.294L50.3609 129.087L49.5733 129.334L49.3421 128.576C48.6453 128.722 47.919 128.613 47.2962 128.269L47.3133 128.362Z" fill="#017D8C"/>
<path d="M44.694 39.3413L45.4731 38.4887C45.6589 38.6824 45.8759 38.8437 46.1151 38.9661C46.3794 39.1029 46.6734 39.1733 46.9712 39.1708C47.0929 39.1706 47.2139 39.1533 47.3308 39.1196C47.4424 39.0922 47.5435 39.033 47.6218 38.9491C47.6625 38.9059 47.6941 38.8548 47.7147 38.7992C47.7353 38.7435 47.7445 38.6844 47.7417 38.6252C47.7409 38.5378 47.7157 38.4524 47.6688 38.3786C47.6219 38.3048 47.5552 38.2455 47.4763 38.2074C47.1878 38.0531 46.8797 37.9383 46.5603 37.8663C45.4816 37.5651 44.9423 37.0194 44.9423 36.2293C44.9348 36.0304 44.969 35.8322 45.0427 35.6473C45.1164 35.4623 45.228 35.2946 45.3704 35.155C45.6969 34.8649 46.1077 34.6858 46.5432 34.6434V33.8846H47.3993V34.6434C47.7014 34.6756 47.9933 34.7715 48.2553 34.9247C48.4495 35.0413 48.6303 35.1786 48.7947 35.3341L48.0584 36.1867C47.9263 36.0628 47.7762 35.9592 47.6133 35.8797C47.4123 35.7673 47.1845 35.7114 46.9541 35.7177C46.8296 35.7179 46.7058 35.7351 46.586 35.7688C46.4688 35.7965 46.3601 35.8522 46.2692 35.9309C46.2266 35.9695 46.1929 36.0171 46.1707 36.0701C46.1486 36.1232 46.1383 36.1804 46.1408 36.2378C46.1388 36.3224 46.1622 36.4058 46.2079 36.4772C46.2537 36.5485 46.3197 36.6047 46.3976 36.6385C46.65 36.7563 46.914 36.8477 47.1852 36.9114C47.48 36.9817 47.7669 37.0817 48.0413 37.2098C48.3029 37.3345 48.5316 37.5184 48.709 37.7469C48.8813 37.9978 48.971 38.2957 48.9658 38.5995C48.9739 38.8737 48.8994 39.1439 48.7518 39.3755C48.6113 39.5994 48.4133 39.7818 48.1783 39.9041C47.931 40.0509 47.6579 40.1492 47.3736 40.1939V41.0465H46.5175V40.2536C46.1363 40.2223 45.766 40.112 45.4302 39.9296C45.1544 39.7745 44.9058 39.5759 44.694 39.3413V39.3413Z" fill="#017D8C"/>
<path d="M148.433 25.6482H136.799V46.8526H148.433V25.6482Z" class="stroke-primary" stroke="#017D8C" stroke-width="2.3" stroke-linecap="round" stroke-linejoin="round"/>
<path d="M98.8911 32.9998H137V38.9998H98.8911C98.1243 38.9998 97.389 38.6845 96.8468 38.1234C96.3046 37.5622 96 36.8012 96 36.0076V36.0076C95.998 35.6134 96.0713 35.2226 96.2157 34.8578C96.3601 34.4929 96.5728 34.1612 96.8414 33.8817C97.1101 33.6022 97.4295 33.3804 97.7812 33.229C98.133 33.0777 98.5102 32.9998 98.8911 32.9998Z" class="stroke-primary" stroke="#017D8C" stroke-width="2.3" stroke-linecap="round" stroke-linejoin="round"/>
</g>
<defs>
<clipPath id="clip0_783_16130">
<rect width="133" height="143" fill="white" transform="translate(17 4.99805)"/>
</clipPath>
</defs>
</svg>
