<svg width="150" height="150" viewBox="0 0 150 150" fill="none" xmlns="http://www.w3.org/2000/svg">
<path d="M107.253 66.9227C107.253 49.8014 92.9902 35.5389 75.8688 35.5389C58.7474 35.5389 44.4849 49.8014 44.4849 66.9227C44.4849 75.4834 47.9124 83.4755 53.6142 88.6087C58.7474 93.7419 61.6063 101.165 61.6063 108.581V118.279C61.6063 124.557 66.7395 129.69 73.0179 129.69H78.7277C85.006 129.69 90.1393 124.557 90.1393 118.279V108.581C90.1393 101.165 92.9901 93.7419 98.1314 88.6087C103.841 82.8989 107.261 75.4834 107.261 66.9227H107.253Z" class="stroke-primary" stroke="#017D8C" stroke-width="3" stroke-linecap="round" stroke-linejoin="round"/>
<path d="M75.8688 129.698V138.259" class="stroke-primary" stroke="#017D8C" stroke-width="3" stroke-linecap="round" stroke-linejoin="round"/>
<path d="M61.5983 106.867H90.1312" class="stroke-primary" stroke="#017D8C" stroke-width="3" stroke-linecap="round" stroke-linejoin="round"/>
<path d="M127.225 66.9227H132.935" class="stroke-primary" stroke="#017D8C" stroke-width="3" stroke-linecap="round" stroke-linejoin="round"/>
<path d="M75.8688 15.5666V9.85681" class="stroke-primary" stroke="#017D8C" stroke-width="3" stroke-linecap="round" stroke-linejoin="round"/>
<path d="M38.7751 29.8291L34.7791 25.833" class="stroke-primary" stroke="#017D8C" stroke-width="3" stroke-linecap="round" stroke-linejoin="round"/>
<path d="M24.5127 66.9227H18.8029" class="stroke-primary" stroke="#017D8C" stroke-width="3" stroke-linecap="round" stroke-linejoin="round"/>
<path d="M112.962 29.8291L117.527 25.833" class="stroke-primary" stroke="#017D8C" stroke-width="3" stroke-linecap="round" stroke-linejoin="round"/>
<path d="M69 75.3615L71.5046 72.501C72.1027 73.1501 72.8097 73.6832 73.5917 74.0744C74.4462 74.549 75.4032 74.7949 76.3745 74.7895C76.77 74.7888 77.1634 74.7308 77.5432 74.6177C77.9096 74.5144 78.2448 74.3178 78.5173 74.0458C78.6447 73.8983 78.7423 73.7261 78.8044 73.5394C78.8665 73.3528 78.8919 73.1555 78.8791 72.9587C78.8781 72.6652 78.8 72.3773 78.653 72.1256C78.5061 71.8738 78.2957 71.6675 78.0441 71.5285C77.0862 71.0419 76.0782 70.6677 75.0388 70.4128C71.5325 69.383 69.8071 67.5521 69.8071 64.8918C69.7797 64.2285 69.8895 63.5671 70.1293 62.9507C70.3692 62.3343 70.7337 61.777 71.1985 61.3161C72.232 60.3159 73.5677 59.7102 74.9831 59.5999V57.054H77.7659V59.5999C78.796 59.6875 79.7942 60.0099 80.6878 60.5437C81.3112 60.9355 81.8981 61.3859 82.441 61.8885L80.0478 64.749C79.6096 64.3577 79.1341 64.0127 78.6286 63.7192C77.5933 63.1588 76.3888 63.0258 75.2613 63.3474C74.8782 63.4497 74.5249 63.6459 74.2317 63.9193C74.0952 64.0447 73.987 64.1992 73.9149 64.3722C73.8428 64.5452 73.8085 64.7323 73.8144 64.9204C73.8023 65.2092 73.8755 65.4949 74.0245 65.74C74.1735 65.9851 74.3914 66.1781 74.6492 66.2935C75.4746 66.6757 76.3313 66.9822 77.2093 67.209C78.1751 67.4179 79.1104 67.7544 79.9921 68.2101C80.8426 68.6284 81.5861 69.2456 82.1628 70.0123C82.7296 70.8505 83.0219 71.8524 82.9976 72.8728C83.027 73.7839 82.7842 74.6824 82.3019 75.4474C81.8379 76.1999 81.1966 76.8197 80.4375 77.2496C79.6267 77.7207 78.741 78.0402 77.8216 78.1934V81.054H75.0388V78.3935C73.8025 78.2943 72.5993 77.934 71.5046 77.3351C70.5684 76.8255 69.7218 76.1585 69 75.3615V75.3615Z" fill="#017D8C"/>
</svg>
