<svg width="150" height="150" viewBox="0 0 150 150" fill="none" xmlns="http://www.w3.org/2000/svg">
<path d="M36.1414 110.559H56.178V141.132H33.283V113.424C33.283 111.843 34.5672 110.559 36.1483 110.559H36.1414Z" class="stroke-primary" stroke="#017D8C" stroke-width="2.5" stroke-linecap="round" stroke-linejoin="round"/>
<path d="M94.173 124.651H113.92C115.48 124.651 116.744 125.915 116.744 127.475V141.132H94.173V124.651Z" class="stroke-primary" stroke="#017D8C" stroke-width="2.5" stroke-linecap="round" stroke-linejoin="round"/>
<path d="M60.5416 90.8539H89.8163C92.219 90.8539 94.173 92.8079 94.173 95.2106V141.132H56.1849V95.2106C56.1849 92.8079 58.1388 90.8539 60.5416 90.8539Z" class="stroke-primary" stroke="#017D8C" stroke-width="2.5" stroke-linecap="round" stroke-linejoin="round"/>
<path d="M68.6059 49.0891L74.6197 36.4885L80.9648 48.9303L94.8082 50.753L84.9418 60.6333L87.4826 74.3592L75.0408 68.0279L62.7648 74.6837L64.9466 60.8956L54.8178 51.2847L68.6059 49.0891Z" class="stroke-primary" stroke="#017D8C" stroke-width="2.5" stroke-linecap="round" stroke-linejoin="round"/>
<path d="M71.8303 102.992H75.8004V123.201" class="stroke-primary" stroke="#017D8C" stroke-width="2.5" stroke-linecap="round" stroke-linejoin="round"/>
<path d="M70.8775 123.201H80.5713" class="stroke-primary" stroke="#017D8C" stroke-width="2.5" stroke-linecap="round" stroke-linejoin="round"/>
<path d="M23.8929 141.132H124.456" class="stroke-primary" stroke="#017D8C" stroke-width="2.5" stroke-linecap="round" stroke-linejoin="round"/>
<path d="M32.4061 86.2072L47.9962 74.9116" class="stroke-primary" stroke="#017D8C" stroke-width="2.5" stroke-linecap="round" stroke-linejoin="round"/>
<path d="M23.4166 65.0383L42.3278 61.4204" class="stroke-primary" stroke="#017D8C" stroke-width="2.5" stroke-linecap="round" stroke-linejoin="round"/>
<path d="M24.252 42.0466L42.9077 46.79" class="stroke-primary" stroke="#017D8C" stroke-width="2.5" stroke-linecap="round" stroke-linejoin="round"/>
<path d="M34.7536 21.5819L49.6395 33.7889" class="stroke-primary" stroke="#017D8C" stroke-width="2.5" stroke-linecap="round" stroke-linejoin="round"/>
<path d="M52.9467 7.50385L61.2527 24.8754" class="stroke-primary" stroke="#017D8C" stroke-width="2.5" stroke-linecap="round" stroke-linejoin="round"/>
<path d="M75.393 2.47052L75.5449 21.72" class="stroke-primary" stroke="#017D8C" stroke-width="2.5" stroke-linecap="round" stroke-linejoin="round"/>
<path d="M97.8531 7.42786L89.8301 24.9305" class="stroke-primary" stroke="#017D8C" stroke-width="2.5" stroke-linecap="round" stroke-linejoin="round"/>
<path d="M116.095 21.4438L101.409 33.8925" class="stroke-primary" stroke="#017D8C" stroke-width="2.5" stroke-linecap="round" stroke-linejoin="round"/>
<path d="M126.665 41.874L108.092 46.9142" class="stroke-primary" stroke="#017D8C" stroke-width="2.5" stroke-linecap="round" stroke-linejoin="round"/>
<path d="M127.583 64.8588L108.617 61.5447" class="stroke-primary" stroke="#017D8C" stroke-width="2.5" stroke-linecap="round" stroke-linejoin="round"/>
<path d="M118.663 86.0623L102.893 75.0152" class="stroke-primary" stroke="#017D8C" stroke-width="2.5" stroke-linecap="round" stroke-linejoin="round"/>
</svg>
