<svg width="150" height="150" viewBox="0 0 150 150" fill="none" xmlns="http://www.w3.org/2000/svg">
<g clip-path="url(#clip0_783_16805)">
<path d="M115.914 55.3053L86.6015 89.4343C85.9378 90.2215 86.0376 91.3963 86.8306 92.0601C87.1655 92.3421 87.5884 92.4948 88.0231 92.4948H101.04V122.248L130.353 88.1185C131.016 87.3314 130.916 86.1565 130.123 85.4928C129.789 85.2108 129.366 85.0581 128.931 85.0581H115.914V55.3053Z" class="stroke-primary" class="stroke-primary" stroke="#017D8C" stroke-width="2.5" stroke-linecap="round" stroke-linejoin="round"/>
<path d="M82.4426 114.676C81.2149 114.764 79.9637 114.817 78.7301 114.817C60.6729 114.817 44.1194 104.766 35.8074 88.7353" class="stroke-primary" class="stroke-primary" stroke="#017D8C" stroke-width="2.5" stroke-linecap="round" stroke-linejoin="round"/>
<path d="M71.2816 18.6797C90.2376 15.7426 109.135 24.2778 119.473 40.4319" class="stroke-primary" class="stroke-primary" stroke="#017D8C" stroke-width="2.5" stroke-linecap="round" stroke-linejoin="round"/>
<path d="M27.9125 60.874C27.9125 60.874 33.5928 73.4154 43.7904 72.7869C64.4558 71.5063 63.8802 44.068 71.6928 34.6105C58.9517 27.7965 43.7199 27.491 30.7145 33.7882C19.859 39.5331 18.8075 49.6661 27.9125 60.874Z" class="stroke-primary" class="stroke-primary" stroke="#017D8C" stroke-width="2.5" stroke-linecap="round" stroke-linejoin="round"/>
<path d="M42.8564 48.7321C42.8564 48.7321 29.4222 50.0009 19.2128 72.9984" class="stroke-primary" class="stroke-primary" stroke="#017D8C" stroke-width="2.5" stroke-linecap="round" stroke-linejoin="round"/>
</g>
<defs>
<clipPath id="clip0_783_16805">
<rect width="115.686" height="108.25" fill="white" transform="translate(17.1569 16.054)"/>
</clipPath>
</defs>
</svg>
