<svg width="150" height="150" viewBox="0 0 150 150" fill="none" xmlns="http://www.w3.org/2000/svg">
<path d="M74.4991 114.054C81.4026 114.054 86.9991 108.458 86.9991 101.554C86.9991 94.6505 81.4026 89.054 74.4991 89.054C67.5955 89.054 61.9991 94.6505 61.9991 101.554C61.9991 108.458 67.5955 114.054 74.4991 114.054Z" class="stroke-primary" stroke="#017D8C" stroke-width="2.5" stroke-linecap="round" stroke-linejoin="round"/>
<path d="M92.9991 129.054C87.6883 118.927 75.328 115.105 65.4116 120.503C61.8398 122.462 58.9259 125.423 56.9991 129.054" class="stroke-primary" stroke="#017D8C" stroke-width="2.5" stroke-linecap="round" stroke-linejoin="round"/>
<path d="M111.499 114.054C118.403 114.054 123.999 108.458 123.999 101.554C123.999 94.6505 118.403 89.054 111.499 89.054C104.595 89.054 98.9991 94.6505 98.9991 101.554C98.9991 108.458 104.595 114.054 111.499 114.054Z" class="stroke-primary" stroke="#017D8C" stroke-width="2.5" stroke-linecap="round" stroke-linejoin="round"/>
<path d="M128.999 127.24C122.184 117.452 108.884 115.112 99.2497 122.035C96.6648 123.897 94.55 126.285 92.9991 129.054" class="stroke-primary" stroke="#017D8C" stroke-width="2.5" stroke-linecap="round" stroke-linejoin="round"/>
<path d="M37.9991 114.054C45.1788 114.054 50.9991 108.458 50.9991 101.554C50.9991 94.6505 45.1788 89.054 37.9991 89.054C30.8194 89.054 24.9991 94.6505 24.9991 101.554C24.9991 108.458 30.8194 114.054 37.9991 114.054Z" class="stroke-primary" stroke="#017D8C" stroke-width="2.5" stroke-linecap="round" stroke-linejoin="round"/>
<path d="M20.9991 127.24C27.8137 117.452 41.1139 115.112 50.7484 122.035C53.3333 123.897 55.4481 126.285 56.9991 129.054" class="stroke-primary" stroke="#017D8C" stroke-width="2.5" stroke-linecap="round" stroke-linejoin="round"/>
<path d="M125.994 52.797L101.172 77.6195L88.9991 80.054L91.4336 67.8814L116.256 43.0589C118.929 40.3857 123.273 40.3857 125.994 43.0589C128.667 45.7798 128.667 50.1238 125.994 52.797Z" class="stroke-primary" stroke="#017D8C" stroke-width="2.5" stroke-linecap="round" stroke-linejoin="round"/>
<path d="M105.999 31.6284L93.9073 21.054H35.9991V75.054" class="stroke-primary" stroke="#017D8C" stroke-width="2.5" stroke-linecap="round" stroke-linejoin="round"/>
<path d="M50.9991 46.054L55.6657 51.054L64.9991 41.054" class="stroke-primary" stroke="#017D8C" stroke-width="2.5" stroke-linecap="round" stroke-linejoin="round"/>
<path d="M50.9991 70.054L55.6657 75.054L64.9991 65.054" class="stroke-primary" stroke="#017D8C" stroke-width="2.5" stroke-linecap="round" stroke-linejoin="round"/>
<path d="M76.9991 48.054H84.9991" class="stroke-primary" stroke="#017D8C" stroke-width="2.5" stroke-linecap="round" stroke-linejoin="round"/>
</svg>
