<svg width="150" height="152" viewBox="0 0 150 152" fill="none" xmlns="http://www.w3.org/2000/svg">
<g clip-path="url(#clip0_783_17831)">
<path d="M42.5876 113.88H106.421V127.485C106.421 138.811 96.1746 147.999 83.564 147.999H65.4445C52.8254 147.999 42.5876 138.803 42.5876 127.485V113.88Z" class="stroke-primary" stroke="#017D8C" stroke-width="2.5" stroke-miterlimit="10"/>
<path d="M106.647 103.344H42.3529C39.1113 103.344 36.4835 105.701 36.4835 108.608C36.4835 111.516 39.1113 113.872 42.3529 113.872H106.647C109.889 113.872 112.517 111.516 112.517 108.608C112.517 105.701 109.889 103.344 106.647 103.344Z" class="stroke-primary" stroke="#017D8C" stroke-width="2.5" stroke-miterlimit="10"/>
<path d="M61.8138 66.155C63.0632 66.0271 64.1783 66.8097 64.4131 67.9159C64.7149 69.3533 65.1593 70.5272 65.7547 71.4528C66.6099 72.7772 67.8341 73.8383 69.4272 74.6359C71.0203 75.4336 72.8146 75.84 74.8102 75.84C77.6694 75.84 79.8914 75.1627 81.4761 73.8082C83.0608 72.4461 83.849 70.6852 83.849 68.518C83.849 67.2462 83.5639 66.14 82.9853 65.1918C82.4068 64.2437 81.5432 63.4686 80.3861 62.859C79.229 62.257 76.7219 61.3991 72.8733 60.2929C69.444 59.3071 67.004 58.3138 65.5534 57.313C64.1029 56.3121 62.9709 55.0479 62.166 53.5127C61.361 51.9776 60.9586 50.2393 60.9586 48.3053C60.9586 44.8211 62.1157 41.9766 64.4383 39.7642C66.7608 37.5518 69.88 36.4456 73.8124 36.4456C76.5123 36.4456 78.8768 36.9649 80.8975 38.0033C82.9266 39.0418 84.4946 40.5318 85.6182 42.4658C86.4147 43.8429 86.9429 45.3931 87.2196 47.1088C87.4041 48.3053 86.4147 49.3965 85.0731 49.5093C83.8322 49.6222 82.7422 48.8471 82.499 47.756C82.0882 45.9274 81.3252 44.5051 80.21 43.4892C78.7259 42.1422 76.6465 41.4649 73.9633 41.4649C71.2802 41.4649 69.1673 42.0594 67.7335 43.2409C66.2997 44.4223 65.587 45.9575 65.587 47.8312C65.587 49.5695 66.1068 50.9241 67.1549 51.8798C68.203 52.843 70.5591 53.8137 74.2317 54.792C77.8203 55.7552 80.3358 56.5905 81.7863 57.2979C83.9999 58.3966 85.6769 59.8414 86.8088 61.6324C87.9407 63.4234 88.5025 65.5606 88.5025 68.0439C88.5025 70.5272 87.9072 72.7546 86.7166 74.7714C85.5259 76.7957 83.9077 78.3308 81.8618 79.3919C79.8159 80.4454 77.3508 80.9721 74.4664 80.9721C69.9722 80.9721 66.3919 79.6628 63.7172 77.0365C61.4868 74.8391 60.1453 71.9946 59.7093 68.5029C59.5667 67.344 60.5058 66.283 61.7971 66.1475L61.8138 66.155Z" fill="#017D8C"/>
<path d="M74.0388 80.9797V103.345" class="stroke-primary" stroke="#017D8C" stroke-width="2.5" stroke-miterlimit="10"/>
<path d="M74.0388 27.0542V41.4649" class="stroke-primary" stroke="#017D8C" stroke-width="2.5" stroke-miterlimit="10"/>
<path d="M132.263 74.6886C132.263 74.6886 125.488 80.9797 117.136 80.9797C108.785 80.9797 102.01 74.6886 102.01 74.6886C102.01 74.6886 108.785 68.3976 117.136 68.3976C125.488 68.3976 132.263 74.6886 132.263 74.6886Z" class="stroke-primary" stroke="#017D8C" stroke-width="2.5" stroke-miterlimit="10"/>
<path d="M73.5525 102.494C73.5525 102.494 81.7863 83.1544 108.081 70.6777" class="stroke-primary" stroke="#017D8C" stroke-width="2.5" stroke-miterlimit="10"/>
<path d="M16.7457 87.2707C16.7457 87.2707 23.5206 93.5618 31.8718 93.5618C40.2231 93.5618 46.9979 87.2707 46.9979 87.2707C46.9979 87.2707 40.2231 80.9797 31.8718 80.9797C23.5206 80.9797 16.7457 87.2707 16.7457 87.2707Z" class="stroke-primary" stroke="#017D8C" stroke-width="2.5" stroke-miterlimit="10"/>
<path d="M73.5525 103.345C73.5525 103.345 61.5036 89.9572 36.4835 81.5892" class="stroke-primary" stroke="#017D8C" stroke-width="2.5" stroke-miterlimit="10"/>
</g>
<defs>
<clipPath id="clip0_783_17831">
<rect width="125" height="124" fill="white" transform="translate(12 27.0542)"/>
</clipPath>
</defs>
</svg>
