<svg width="150" height="150" viewBox="0 0 150 150" fill="none" xmlns="http://www.w3.org/2000/svg">
<path d="M12 102.471L91.0951 136.035L91.7012 70.2216L12.6061 36.6575L12 102.471Z" class="stroke-primary" stroke="#017D8C" stroke-width="2.5" stroke-linecap="round" stroke-linejoin="round"/>
<path d="M36.0893 60.2957L35.7341 98.869" class="stroke-primary" stroke="#017D8C" stroke-width="2.5" stroke-linecap="round" stroke-linejoin="round"/>
<path d="M18.3266 88.8961L30.5648 94.0894" class="stroke-primary" stroke="#017D8C" stroke-width="2.5" stroke-linecap="round" stroke-linejoin="round"/>
<path d="M18.3888 82.1445L30.627 87.3378" class="stroke-primary" stroke="#017D8C" stroke-width="2.5" stroke-linecap="round" stroke-linejoin="round"/>
<path d="M18.451 75.3931L30.6893 80.5864" class="stroke-primary" stroke="#017D8C" stroke-width="2.5" stroke-linecap="round" stroke-linejoin="round"/>
<path d="M18.5132 68.6415L30.7514 73.8348" class="stroke-primary" stroke="#017D8C" stroke-width="2.5" stroke-linecap="round" stroke-linejoin="round"/>
<path d="M18.6376 55.1383L30.8758 60.3316" class="stroke-primary" stroke="#017D8C" stroke-width="2.5" stroke-linecap="round" stroke-linejoin="round"/>
<path d="M44.1183 99.8403L56.3565 105.034" class="stroke-primary" stroke="#017D8C" stroke-width="2.5" stroke-linecap="round" stroke-linejoin="round"/>
<path d="M44.1805 93.0887L56.4187 98.2821" class="stroke-primary" stroke="#017D8C" stroke-width="2.5" stroke-linecap="round" stroke-linejoin="round"/>
<path d="M44.2427 86.3381L56.4809 91.5314" class="stroke-primary" stroke="#017D8C" stroke-width="2.5" stroke-linecap="round" stroke-linejoin="round"/>
<path d="M44.3048 79.5865L56.543 84.7799" class="stroke-primary" stroke="#017D8C" stroke-width="2.5" stroke-linecap="round" stroke-linejoin="round"/>
<path d="M44.4292 66.0834L56.6674 71.2767" class="stroke-primary" stroke="#017D8C" stroke-width="2.5" stroke-linecap="round" stroke-linejoin="round"/>
<path d="M63.8327 72.0681L63.4774 110.641" class="stroke-primary" stroke="#017D8C" stroke-width="2.5" stroke-linecap="round" stroke-linejoin="round"/>
<path d="M63.8327 72.0681L63.4774 110.641" class="stroke-primary" stroke="#017D8C" stroke-width="2.5" stroke-linecap="round" stroke-linejoin="round"/>
<path d="M71.8616 111.613L84.0998 116.806" class="stroke-primary" stroke="#017D8C" stroke-width="2.5" stroke-linecap="round" stroke-linejoin="round"/>
<path d="M71.9238 104.862L84.162 110.055" class="stroke-primary" stroke="#017D8C" stroke-width="2.5" stroke-linecap="round" stroke-linejoin="round"/>
<path d="M71.986 98.1106L84.2242 103.304" class="stroke-primary" stroke="#017D8C" stroke-width="2.5" stroke-linecap="round" stroke-linejoin="round"/>
<path d="M72.1725 77.856L84.4107 83.0493L84.2864 96.5522L72.0482 91.3589L72.1725 77.856Z" class="stroke-primary" stroke="#017D8C" stroke-width="2.5" stroke-linecap="round" stroke-linejoin="round"/>
<path d="M128.284 125.266L91.6826 135.845L92.2886 70.0323L128.89 59.4529L128.284 125.266Z" class="stroke-primary" stroke="#017D8C" stroke-width="2.5" stroke-linecap="round" stroke-linejoin="round"/>
<path d="M12.4377 36.5503L49.0393 25.9709L128.89 59.4522" class="stroke-primary" stroke="#017D8C" stroke-width="2.5" stroke-linecap="round" stroke-linejoin="round"/>
<path d="M38.2551 29.0893L22.716 22.4952L22.6135 33.63" class="stroke-primary" stroke="#017D8C" stroke-width="2.5" stroke-linecap="round" stroke-linejoin="round"/>
<path d="M113.021 52.7987L139 45.2897L138.394 111.103L128.89 113.85" class="stroke-primary" stroke="#017D8C" stroke-width="2.5" stroke-linecap="round" stroke-linejoin="round"/>
<path d="M22.5474 22.388L59.1489 11.8086L139 45.2898" class="stroke-primary" stroke="#017D8C" stroke-width="2.5" stroke-linecap="round" stroke-linejoin="round"/>
<path d="M111.332 76.3828L111.583 93.1171C111.59 93.5844 112.033 93.9215 112.485 93.8036L118.125 92.333C118.651 92.1958 119.134 92.6685 119.007 93.1974L113.358 116.879C113.161 117.704 111.949 117.57 111.937 116.722L111.715 101.932C111.708 101.465 111.265 101.128 110.813 101.246L103.799 103.075C103.264 103.214 102.778 102.724 102.922 102.19L109.916 76.2063C110.133 75.3993 111.32 75.5472 111.332 76.3828Z" fill="#017D8C"/>
</svg>
