<svg width="150" height="150" viewBox="0 0 150 150" fill="none" xmlns="http://www.w3.org/2000/svg">
<path d="M138.58 60.6057V140.001H10.7452V60.6057" class="stroke-primary" stroke="#017D8C" stroke-width="2.5" stroke-linecap="round" stroke-linejoin="round"/>
<path d="M52.0462 87.3735H23.1791V140.001H52.0462V87.3735Z" class="stroke-primary" stroke="#017D8C" stroke-width="2.5" stroke-linecap="round" stroke-linejoin="round"/>
<path d="M126.346 77.687H62.3248V123.124H126.346V77.687Z" class="stroke-primary" stroke="#017D8C" stroke-width="2.5" stroke-linecap="round" stroke-linejoin="round"/>
<path d="M123.707 49.8468V52.2041C123.707 57.6214 128.099 62.013 133.516 62.013C138.933 62.013 143.325 57.6214 143.325 52.2041V49.8468L138.718 25.8093" class="stroke-primary" stroke="#017D8C" stroke-width="2.5" stroke-linecap="round" stroke-linejoin="round"/>
<path d="M104.089 49.8468V52.2041C104.089 57.6214 108.481 62.013 113.898 62.013C119.315 62.013 123.707 57.6214 123.707 52.2041V49.8468L120.521 25.8093" class="stroke-primary" stroke="#017D8C" stroke-width="2.5" stroke-linecap="round" stroke-linejoin="round"/>
<path d="M84.4713 49.8468V52.2041C84.4713 57.6214 88.8629 62.013 94.2802 62.013C99.6975 62.013 104.089 57.6214 104.089 52.2041V49.8468L102.202 25.8093" class="stroke-primary" stroke="#017D8C" stroke-width="2.5" stroke-linecap="round" stroke-linejoin="round"/>
<path d="M64.8535 49.8468V52.2041C64.8535 57.6214 69.245 62.013 74.6623 62.013C80.0797 62.013 84.4713 57.6214 84.4713 52.2041V49.8468L83.8831 25.8093" class="stroke-primary" stroke="#017D8C" stroke-width="2.5" stroke-linecap="round" stroke-linejoin="round"/>
<path d="M45.2357 49.8468V52.2041C45.2357 57.6214 49.6272 62.013 55.0445 62.013C60.4619 62.013 64.8535 57.6214 64.8535 52.2041V49.8468L65.5641 25.8093" class="stroke-primary" stroke="#017D8C" stroke-width="2.5" stroke-linecap="round" stroke-linejoin="round"/>
<path d="M25.6178 49.8468V52.2041C25.6178 57.6214 30.0094 62.013 35.4267 62.013C40.844 62.013 45.2356 57.6214 45.2356 52.2041V49.8468L47.245 25.8093" class="stroke-primary" stroke="#017D8C" stroke-width="2.5" stroke-linecap="round" stroke-linejoin="round"/>
<path d="M10.607 25.8094L6 49.847V52.2042C6 57.6215 10.3916 62.0131 15.8089 62.0131C21.2262 62.0131 25.6178 57.6215 25.6178 52.2042V49.847L28.926 25.8094" class="stroke-primary" stroke="#017D8C" stroke-width="2.5" stroke-linecap="round" stroke-linejoin="round"/>
<path d="M138.718 10.0547H10.6071V25.8095H138.718V10.0547Z" class="stroke-primary" stroke="#017D8C" stroke-width="2.5" stroke-linecap="round" stroke-linejoin="round"/>
</svg>
