<svg width="150" height="150" viewBox="0 0 150 150" fill="none" xmlns="http://www.w3.org/2000/svg">
<path d="M137.71 103.718H30.0789" class="stroke-primary" stroke="#017D8C" stroke-width="2.5" stroke-miterlimit="10" stroke-linecap="round"/>
<path d="M127.626 121.232H80.9015" class="stroke-primary" stroke="#017D8C" stroke-width="2.5" stroke-miterlimit="10" stroke-linecap="round"/>
<path d="M98.7731 138.745H70.3455" class="stroke-primary" stroke="#017D8C" stroke-width="2.5" stroke-miterlimit="10" stroke-linecap="round"/>
<path d="M69.5917 121.232H40.1445" class="stroke-primary" stroke="#017D8C" stroke-width="2.5" stroke-miterlimit="10" stroke-linecap="round"/>
<path d="M87.2174 78.3242C87.2174 78.3242 83.9405 76.5291 84.6635 72.0728C88.1495 50.5872 112.329 50.4504 112.329 50.4504C112.329 50.4504 112.859 74.8331 91.6593 78.9384C89.6392 79.3296 88.1918 78.9014 87.2174 78.3242Z" class="stroke-primary" stroke="#017D8C" stroke-width="2.5" stroke-linecap="round" stroke-linejoin="round"/>
<path d="M83.0898 85.826C83.0898 85.826 81.6305 88.1923 78.394 87.4587C62.789 83.9217 63.7428 65.8771 63.7428 65.8771C63.7428 65.8771 81.6473 66.546 83.7339 82.5392C83.9327 84.0633 83.5556 85.1243 83.0898 85.826Z" class="stroke-primary" stroke="#017D8C" stroke-width="2.5" stroke-linecap="round" stroke-linejoin="round"/>
<path d="M83.8897 103.042V74.7588" class="stroke-primary" stroke="#017D8C" stroke-width="2.5" stroke-miterlimit="10" stroke-linecap="round"/>
<path d="M37.6359 63.5069V52.2356" class="stroke-primary" stroke="#017D8C" stroke-width="2.5" stroke-linecap="round" stroke-linejoin="round"/>
<path d="M37.6359 21.6359V10.3646" class="stroke-primary" stroke="#017D8C" stroke-width="2.5" stroke-linecap="round" stroke-linejoin="round"/>
<path d="M11.2903 36.9358H22.4659" class="stroke-primary" stroke="#017D8C" stroke-width="2.5" stroke-linecap="round" stroke-linejoin="round"/>
<path d="M52.8059 36.9358H63.9815" class="stroke-primary" stroke="#017D8C" stroke-width="2.5" stroke-linecap="round" stroke-linejoin="round"/>
<path d="M19.3267 55.7244L27.2291 47.7544" class="stroke-primary" stroke="#017D8C" stroke-width="2.5" stroke-linecap="round" stroke-linejoin="round"/>
<path d="M48.6827 26.1171L56.5851 18.1471" class="stroke-primary" stroke="#017D8C" stroke-width="2.5" stroke-linecap="round" stroke-linejoin="round"/>
<path d="M19.3267 18.1471L27.2291 26.1171" class="stroke-primary" stroke="#017D8C" stroke-width="2.5" stroke-linecap="round" stroke-linejoin="round"/>
<path d="M48.6827 47.7544L56.5851 55.7244" class="stroke-primary" stroke="#017D8C" stroke-width="2.5" stroke-linecap="round" stroke-linejoin="round"/>
<path d="M37.6359 43.2163C41.0751 43.2163 43.8632 40.4044 43.8632 36.9357C43.8632 33.4671 41.0751 30.6552 37.6359 30.6552C34.1967 30.6552 31.4086 33.4671 31.4086 36.9357C31.4086 40.4044 34.1967 43.2163 37.6359 43.2163Z" class="stroke-primary" stroke="#017D8C" stroke-width="2.5" stroke-linecap="round" stroke-linejoin="round"/>
</svg>
