<svg width="150" height="150" viewBox="0 0 150 150" fill="none" xmlns="http://www.w3.org/2000/svg">

<path d="M76.9475 76.2H69.6763V108.145H76.9475V76.2Z" fill="white" class="stroke-primary" stroke="#017D8C" stroke-width="2.5" stroke-linecap="round" stroke-linejoin="round"/>
<path d="M64.0143 136.044C56.8827 136.044 51.0808 130.242 51.0808 123.111C51.0808 121.103 52.7084 119.475 54.7164 119.475C56.7243 119.475 58.3519 121.103 58.3519 123.111C58.3519 126.233 60.8921 128.773 64.0143 128.773C67.1364 128.773 69.6763 126.233 69.6763 123.111V108.145H76.9475V123.111C76.9475 130.242 71.1456 136.044 64.0143 136.044Z" fill="white" class="stroke-primary" stroke="#017D8C" stroke-width="2.5" stroke-linecap="round" stroke-linejoin="round"/>
<path d="M123.294 89.9599C123.294 62.4598 100.812 37.6614 73.3119 37.6614C45.8118 37.6614 23.7072 62.4598 23.7072 89.9599V89.9678C23.7072 91.3905 25.3935 91.698 26.0763 91.6992C26.7591 91.698 27.5599 91.2097 28.4454 89.9678V89.9599C33.4686 82.9147 38.0111 80.145 41.8843 80.1378C45.7575 80.145 50.3002 82.9147 55.3234 89.9599V89.9678C56.2089 91.2097 57.0096 91.698 57.6924 91.6992C58.3752 91.698 59.176 91.2097 60.0615 89.9678V89.9599C65.0847 82.9147 69.6272 80.145 73.5004 80.1378C77.3736 80.145 81.9163 82.9147 86.9395 89.9599V89.9678C87.825 91.2097 88.6258 91.698 89.3086 91.6992C89.9913 91.698 90.7921 91.2097 91.6777 89.9678V89.9599C96.7009 82.9147 101.243 80.145 105.117 80.1378C108.99 80.145 113.532 82.9147 118.556 89.9599V89.9678C119.441 91.2097 120.242 91.698 120.925 91.6992C121.607 91.698 123.294 91.8839 123.294 89.9678" fill="white"/>
<path d="M123.294 89.9599C123.294 62.4598 100.812 37.6614 73.3119 37.6614C45.8118 37.6614 23.7072 62.4598 23.7072 89.9599V89.9678C23.7072 91.3905 25.3935 91.698 26.0763 91.6992C26.7591 91.698 27.5599 91.2097 28.4454 89.9678V89.9599C33.4686 82.9147 38.0111 80.145 41.8843 80.1378C45.7575 80.145 50.3002 82.9147 55.3234 89.9599V89.9678C56.2089 91.2097 57.0096 91.698 57.6924 91.6992C58.3752 91.698 59.176 91.2097 60.0615 89.9678V89.9599C65.0847 82.9147 69.6272 80.145 73.5004 80.1378C77.3736 80.145 81.9163 82.9147 86.9395 89.9599V89.9678C87.825 91.2097 88.6258 91.698 89.3086 91.6992C89.9913 91.698 90.7921 91.2097 91.6777 89.9678V89.9599C96.7009 82.9147 101.243 80.145 105.117 80.1378C108.99 80.145 113.532 82.9147 118.556 89.9599V89.9678C119.441 91.2097 120.242 91.698 120.925 91.6992C121.607 91.698 123.294 91.8839 123.294 89.9678" class="stroke-primary" stroke="#017D8C" stroke-width="2.5" stroke-linecap="round" stroke-linejoin="round"/>
<path d="M73.2704 30.4346V36.6377" class="stroke-primary" stroke="#017D8C" stroke-width="2.5" stroke-linecap="round" stroke-linejoin="round"/>
<path d="M73.1874 36.6376C84.6773 47.0837 91.0468 62.8608 88.8905 88.7988" class="stroke-primary" stroke="#017D8C" stroke-width="2.5" stroke-linecap="round" stroke-linejoin="round"/>
<path d="M73.2704 36.6376C61.7806 47.0837 55.4941 62.8608 57.6504 88.7988" class="stroke-primary" stroke="#017D8C" stroke-width="2.5" stroke-linecap="round" stroke-linejoin="round"/>
<path d="M7.00003 42.2048V55.5909" class="stroke-primary" stroke="#017D8C" stroke-width="2.5" stroke-linecap="round" stroke-linejoin="round"/>
<path d="M7.00003 18.3387V31.7249" class="stroke-primary" stroke="#017D8C" stroke-width="2.5" stroke-linecap="round" stroke-linejoin="round"/>
<path d="M7.00003 64.5238V77.9099" class="stroke-primary" stroke="#017D8C" stroke-width="2.5" stroke-linecap="round" stroke-linejoin="round"/>
<path d="M7.00003 92.6013V99.2944" class="stroke-primary" stroke="#017D8C" stroke-width="2.5" stroke-linecap="round" stroke-linejoin="round"/>
<path d="M7.00003 110.989V117.682" class="stroke-primary" stroke="#017D8C" stroke-width="2.5" stroke-linecap="round" stroke-linejoin="round"/>
<path d="M7.00003 127.817V134.51" class="stroke-primary" stroke="#017D8C" stroke-width="2.5" stroke-linecap="round" stroke-linejoin="round"/>
<path d="M26.0002 42.2048V55.5909" class="stroke-primary" stroke="#017D8C" stroke-width="2.5" stroke-linecap="round" stroke-linejoin="round"/>
<path d="M26.0002 18.3387V31.7249" class="stroke-primary" stroke="#017D8C" stroke-width="2.5" stroke-linecap="round" stroke-linejoin="round"/>
<path d="M16.5002 30.9208V44.3069" class="stroke-primary" stroke="#017D8C" stroke-width="2.5" stroke-linecap="round" stroke-linejoin="round"/>
<path d="M16.5002 7.05469V20.4408" class="stroke-primary" stroke="#017D8C" stroke-width="2.5" stroke-linecap="round" stroke-linejoin="round"/>
<path d="M16.5002 53.2406V66.6267" class="stroke-primary" stroke="#017D8C" stroke-width="2.5" stroke-linecap="round" stroke-linejoin="round"/>
<path d="M16.5002 81.3173V88.0103" class="stroke-primary" stroke="#017D8C" stroke-width="2.5" stroke-linecap="round" stroke-linejoin="round"/>
<path d="M16.5002 99.7045V106.398" class="stroke-primary" stroke="#017D8C" stroke-width="2.5" stroke-linecap="round" stroke-linejoin="round"/>
<path d="M16.5002 116.533V123.226" class="stroke-primary" stroke="#017D8C" stroke-width="2.5" stroke-linecap="round" stroke-linejoin="round"/>
<path d="M16.5002 133.362V140.055" class="stroke-primary" stroke="#017D8C" stroke-width="2.5" stroke-linecap="round" stroke-linejoin="round"/>
<path d="M7.00003 18.276V31.6621" class="stroke-primary" stroke="#017D8C" stroke-width="2.5" stroke-linecap="round" stroke-linejoin="round"/>
<path d="M45.0003 18.3387V31.7249" class="stroke-primary" stroke="#017D8C" stroke-width="2.5" stroke-linecap="round" stroke-linejoin="round"/>
<path d="M35.5003 30.9208V44.3069" class="stroke-primary" stroke="#017D8C" stroke-width="2.5" stroke-linecap="round" stroke-linejoin="round"/>
<path d="M35.5003 7.05469V20.4408" class="stroke-primary" stroke="#017D8C" stroke-width="2.5" stroke-linecap="round" stroke-linejoin="round"/>
<path d="M26.0002 18.276V31.6621" class="stroke-primary" stroke="#017D8C" stroke-width="2.5" stroke-linecap="round" stroke-linejoin="round"/>
<path d="M64.0004 18.3387V31.7249" class="stroke-primary" stroke="#017D8C" stroke-width="2.5" stroke-linecap="round" stroke-linejoin="round"/>
<path d="M54.5004 7.05469V20.4408" class="stroke-primary" stroke="#017D8C" stroke-width="2.5" stroke-linecap="round" stroke-linejoin="round"/>
<path d="M45.0003 18.276V31.6621" class="stroke-primary" stroke="#017D8C" stroke-width="2.5" stroke-linecap="round" stroke-linejoin="round"/>
<path d="M83.0007 18.3387V31.7249" class="stroke-primary" stroke="#017D8C" stroke-width="2.5" stroke-linecap="round" stroke-linejoin="round"/>
<path d="M73.5006 7.05469V20.4408" class="stroke-primary" stroke="#017D8C" stroke-width="2.5" stroke-linecap="round" stroke-linejoin="round"/>
<path d="M64.0004 18.276V31.6621" class="stroke-primary" stroke="#017D8C" stroke-width="2.5" stroke-linecap="round" stroke-linejoin="round"/>
<path d="M102.001 18.3387V31.7249" class="stroke-primary" stroke="#017D8C" stroke-width="2.5" stroke-linecap="round" stroke-linejoin="round"/>
<path d="M92.5007 7.05469V20.4408" class="stroke-primary" stroke="#017D8C" stroke-width="2.5" stroke-linecap="round" stroke-linejoin="round"/>
<path d="M83.0007 18.276V31.6621" class="stroke-primary" stroke="#017D8C" stroke-width="2.5" stroke-linecap="round" stroke-linejoin="round"/>
<path d="M121.001 42.2048V55.5909" class="stroke-primary" stroke="#017D8C" stroke-width="2.5" stroke-linecap="round" stroke-linejoin="round"/>
<path d="M121.001 18.3387V31.7249" class="stroke-primary" stroke="#017D8C" stroke-width="2.5" stroke-linecap="round" stroke-linejoin="round"/>
<path d="M111.501 30.9208V44.3069" class="stroke-primary" stroke="#017D8C" stroke-width="2.5" stroke-linecap="round" stroke-linejoin="round"/>
<path d="M111.501 7.05469V20.4408" class="stroke-primary" stroke="#017D8C" stroke-width="2.5" stroke-linecap="round" stroke-linejoin="round"/>
<path d="M102.001 18.276V31.6621" class="stroke-primary" stroke="#017D8C" stroke-width="2.5" stroke-linecap="round" stroke-linejoin="round"/>
<path d="M140.001 42.2048V55.5909" class="stroke-primary" stroke="#017D8C" stroke-width="2.5" stroke-linecap="round" stroke-linejoin="round"/>
<path d="M140.001 18.3387V31.7249" class="stroke-primary" stroke="#017D8C" stroke-width="2.5" stroke-linecap="round" stroke-linejoin="round"/>
<path d="M140.001 64.5238V77.9099" class="stroke-primary" stroke="#017D8C" stroke-width="2.5" stroke-linecap="round" stroke-linejoin="round"/>
<path d="M140.001 92.6013V99.2944" class="stroke-primary" stroke="#017D8C" stroke-width="2.5" stroke-linecap="round" stroke-linejoin="round"/>
<path d="M140.001 110.989V117.682" class="stroke-primary" stroke="#017D8C" stroke-width="2.5" stroke-linecap="round" stroke-linejoin="round"/>
<path d="M140.001 127.817V134.51" class="stroke-primary" stroke="#017D8C" stroke-width="2.5" stroke-linecap="round" stroke-linejoin="round"/>
<path d="M130.501 30.9208V44.3069" class="stroke-primary" stroke="#017D8C" stroke-width="2.5" stroke-linecap="round" stroke-linejoin="round"/>
<path d="M130.501 7.05469V20.4408" class="stroke-primary" stroke="#017D8C" stroke-width="2.5" stroke-linecap="round" stroke-linejoin="round"/>
<path d="M130.501 53.2406V66.6267" class="stroke-primary" stroke="#017D8C" stroke-width="2.5" stroke-linecap="round" stroke-linejoin="round"/>
<path d="M130.501 81.3173V88.0103" class="stroke-primary" stroke="#017D8C" stroke-width="2.5" stroke-linecap="round" stroke-linejoin="round"/>
<path d="M130.501 99.7045V106.398" class="stroke-primary" stroke="#017D8C" stroke-width="2.5" stroke-linecap="round" stroke-linejoin="round"/>
<path d="M130.501 116.533V123.226" class="stroke-primary" stroke="#017D8C" stroke-width="2.5" stroke-linecap="round" stroke-linejoin="round"/>
<path d="M130.501 133.362V140.055" class="stroke-primary" stroke="#017D8C" stroke-width="2.5" stroke-linecap="round" stroke-linejoin="round"/>
<path d="M121.001 18.276V31.6621" class="stroke-primary" stroke="#017D8C" stroke-width="2.5" stroke-linecap="round" stroke-linejoin="round"/>
</svg>
