<svg width="150" height="150" viewBox="0 0 150 150" fill="none" xmlns="http://www.w3.org/2000/svg">
<path d="M79 71.9998H71V108H79V71.9998Z" class="stroke-primary" stroke="#017D8C" stroke-width="2.5" stroke-linecap="round" stroke-linejoin="round"/>
<path d="M62.6448 146C52.9758 146 45.1069 138.131 45.1069 128.462C45.1069 125.736 47.3099 123.533 50.0357 123.533C52.7615 123.533 54.9645 125.736 54.9645 128.462C54.9645 132.696 58.4104 136.142 62.6448 136.142C66.8793 136.142 70.3252 132.696 70.3252 128.462V108.172H80.1827V128.462C80.1827 138.131 72.3138 146 62.6448 146Z" class="stroke-primary" stroke="#017D8C" stroke-width="2.5" stroke-linecap="round" stroke-linejoin="round"/>
<path d="M143.006 83.5283C143.006 46.2495 112.525 12.6223 75.2458 12.6223C37.967 12.6223 8 46.2409 8 83.5283C8 85.4655 10.2887 85.8856 11.2144 85.8856C12.1402 85.8856 13.2288 85.2255 14.4289 83.5369C21.2349 73.9707 27.398 70.2163 32.644 70.2077C37.8985 70.2163 44.053 73.9707 50.859 83.5197C52.0591 85.217 53.1477 85.877 54.0735 85.877C54.9992 85.877 56.0878 85.217 57.2879 83.5283C64.0939 73.9622 70.257 70.2077 75.503 70.1992C80.7575 70.2077 86.9121 73.9622 93.7181 83.5112C94.9181 85.2084 96.0068 85.8684 96.9325 85.8684C97.8583 85.8684 98.9469 85.2084 100.147 83.5197C106.953 73.9536 113.116 70.1991 118.362 70.1906C123.617 70.1991 129.771 73.9536 136.577 83.5026C137.777 85.1998 138.866 85.8598 139.792 85.8598C140.717 85.8598 143.006 86.1084 143.006 83.5112" class="stroke-primary" stroke="#017D8C" stroke-width="2.5" stroke-linecap="round" stroke-linejoin="round"/>
<path d="M75.1949 2.82495V11.2339" class="stroke-primary" stroke="#017D8C" stroke-width="2.5" stroke-linecap="round" stroke-linejoin="round"/>
<path d="M75 10.9998C90.6774 26.0179 99.3746 48.6998 96.4324 85.9998" class="stroke-primary" stroke="#017D8C" stroke-width="2.5" stroke-linecap="round" stroke-linejoin="round"/>
<path d="M75.1933 11.234C59.6183 25.3946 51.0979 46.7813 54.0209 81.9514" class="stroke-primary" stroke="#017D8C" stroke-width="2.5" stroke-linecap="round" stroke-linejoin="round"/>
</svg>
