<svg width="150" height="150" viewBox="0 0 150 150" fill="none" xmlns="http://www.w3.org/2000/svg">
<path d="M74.9859 80.3521H53.9056C44.8215 80.3521 37.4587 72.9894 37.4587 63.9053C37.4587 54.8212 44.8215 47.4584 53.9056 47.4584H95.176C104.26 47.4584 111.623 54.8212 111.623 63.9053" class="stroke-secondary" stroke="#86C543" stroke-width="2.5" stroke-linecap="round" stroke-linejoin="round"/>
<path d="M113.332 96.8344L124.102 90.8629C125.323 90.1849 125.399 88.4636 124.244 87.6796L89.3341 63.9643C88.0667 63.1036 86.3572 64.0468 86.4103 65.5795L87.937 107.799C87.9901 109.196 89.4933 110.045 90.7136 109.367L101.478 103.401L113.686 125.089C114.688 126.899 116.964 127.547 118.773 126.545L124.073 123.609C125.883 122.607 126.531 120.332 125.529 118.522L113.321 96.8344H113.332Z" class="stroke-primary"  stroke="#017D8C" stroke-width="2.5" stroke-linecap="round" stroke-linejoin="round"/>
<path d="M59.9891 38.8754V26.5786" class="stroke-secondary" stroke="#86C543" stroke-width="2.5" stroke-linecap="round" stroke-linejoin="round"/>
<path d="M26.842 63.9465H14.5452" class="stroke-secondary" stroke="#86C543" stroke-width="2.5" stroke-linecap="round" stroke-linejoin="round"/>
<path d="M30.7503 49.5453L20.1512 43.3084" class="stroke-secondary" stroke="#86C543" stroke-width="2.5" stroke-linecap="round" stroke-linejoin="round"/>
<path d="M43.3418 40.0014L38.9265 28.5239" class="stroke-secondary" stroke="#86C543" stroke-width="2.5" stroke-linecap="round" stroke-linejoin="round"/>
<path d="M59.8359 88.888V101.185" class="stroke-secondary" stroke="#86C543" stroke-width="2.5" stroke-linecap="round" stroke-linejoin="round"/>
<path d="M30.597 78.2241L19.9921 84.455" class="stroke-secondary" stroke="#86C543" stroke-width="2.5" stroke-linecap="round" stroke-linejoin="round"/>
<path d="M43.1886 87.768L38.7733 99.2454" class="stroke-secondary" stroke="#86C543" stroke-width="2.5" stroke-linecap="round" stroke-linejoin="round"/>
</svg>
