<svg width="150" height="150" viewBox="0 0 150 150" fill="none" xmlns="http://www.w3.org/2000/svg">
<path d="M84.212 65.4633C83.6639 64.9776 82.9552 64.6633 82.1801 64.6062C80.2645 64.4747 78.6146 65.9719 78.4873 67.9491C78.3599 69.9262 79.8105 71.6291 81.7261 71.7606" class="stroke-secondary" stroke="#86C543" stroke-width="2.5" stroke-linecap="round" stroke-linejoin="round"/>
<path d="M78.9081 78.0407C79.4562 78.5264 80.1649 78.8407 80.94 78.8978C82.8556 79.0293 84.5055 77.5321 84.6328 75.5549C84.7601 73.5778 83.3096 71.8749 81.394 71.7435" class="stroke-secondary" stroke="#86C543" stroke-width="2.5" stroke-linecap="round" stroke-linejoin="round"/>
<path d="M81.3441 62.5776V64.6234" class="stroke-secondary" stroke="#86C543" stroke-width="2.5" stroke-linecap="round" stroke-linejoin="round"/>
<path d="M81.3441 78.9207V80.9664" class="stroke-secondary" stroke="#86C543" stroke-width="2.5" stroke-linecap="round" stroke-linejoin="round"/>
<path d="M105.472 42.046V39.9317C105.472 39.8746 105.472 39.8232 105.472 39.7717C105.472 36.2631 102.72 33.4231 99.321 33.4231C95.9216 33.4231 93.1699 36.2631 93.1699 39.7717V39.9317" class="stroke-primary"  stroke="#017D8C" stroke-width="2.5" stroke-linejoin="round"/>
<path d="M93.1699 42.0459V35.6973V35.5373C93.1699 32.0287 90.4182 29.1886 87.0188 29.1886C83.6194 29.1886 80.8678 32.0287 80.8678 35.5373V35.6973V42.0459" class="stroke-primary"  stroke="#017D8C" stroke-width="2.5" stroke-linejoin="round"/>
<path d="M80.8679 42.046V29.5087V29.3487C80.8679 25.84 78.1162 23 74.7168 23C71.3174 23 68.5658 25.84 68.5658 29.3487V29.5087V42.046" class="stroke-primary"  stroke="#017D8C" stroke-width="2.5" stroke-linejoin="round"/>
<path d="M68.5659 39.9316V35.6973V35.5373C68.5659 32.0287 65.8142 29.1886 62.4148 29.1886C59.0154 29.1886 56.2638 32.0287 56.2638 35.5373V35.6973V42.0459" class="stroke-primary"  stroke="#017D8C" stroke-width="2.5" stroke-linejoin="round"/>
<path d="M76.8761 109.058C79.3952 101.721 73.7535 92.018 69.8724 89.6351L62.8522 85.3322C60.6486 83.9836 58.7607 83.8121 56.5184 84.6636L57.216 66.7319C57.2603 62.9376 54.2928 59.7947 50.6165 59.749C46.9403 59.7032 43.8952 62.7661 43.8509 66.5605L43.6959 79.1778L43.9838 93.2923C44.0669 97.4237 46.2261 100.407 49.5867 103.39L62.3096 115.247C63.6107 116.458 64.3526 118.178 64.3636 119.99L64.3968 128.556H81.7759H97.4663L97.4331 115.658C97.4331 113.727 98.5071 111.973 100.19 111.121C102.532 109.938 105.511 107.121 105.511 100.469" class="stroke-primary"  stroke="#017D8C" stroke-width="2.5" stroke-linecap="round" stroke-linejoin="round"/>
<path d="M81.7315 93.4809H128V50.5489H35.2915V93.4809" class="stroke-secondary" stroke="#86C543" stroke-width="2.5" stroke-linecap="round" stroke-linejoin="round"/>
<path d="M119.391 43.4288H28V86.3608" class="stroke-secondary" stroke="#86C543" stroke-width="2.5" stroke-linecap="round" stroke-linejoin="round"/>
<path d="M81.3939 86.9094C89.5091 86.9094 96.0877 80.1194 96.0877 71.7435C96.0877 63.3676 89.5091 56.5776 81.3939 56.5776C73.2787 56.5776 66.7001 63.3676 66.7001 71.7435C66.7001 80.1194 73.2787 86.9094 81.3939 86.9094Z" class="stroke-secondary" stroke="#86C543" stroke-width="2.5" stroke-linecap="round" stroke-linejoin="round"/>
<path d="M116.528 50.5489L127.745 62.1319" class="stroke-secondary" stroke="#86C543" stroke-width="2.5" stroke-linecap="round" stroke-linejoin="round"/>
<path d="M127.745 81.4351L116.528 93.0123" class="stroke-secondary" stroke="#86C543" stroke-width="2.5" stroke-linecap="round" stroke-linejoin="round"/>
<path d="M35.2915 62.3663L46.5084 50.7833" class="stroke-secondary" stroke="#86C543" stroke-width="2.5" stroke-linecap="round" stroke-linejoin="round"/>
</svg>
